<?xml version="1.0" standalone="no"?>
<!DOCTYPE svg PUBLIC "-//W3C//DTD SVG 20010904//EN"
 "http://www.w3.org/TR/2001/REC-SVG-20010904/DTD/svg10.dtd">
<svg version="1.0" xmlns="http://www.w3.org/2000/svg"
 width="581.000000pt" height="441.000000pt" viewBox="0 0 581.000000 441.000000"
 preserveAspectRatio="xMidYMid meet">

<g transform="translate(0.000000,441.000000) scale(0.100000,-0.100000)"
fill="#000000" stroke="none">
<path d="M1141 2952 c-35 -149 -39 -159 -70 -172 -48 -20 -79 -61 -97 -130
-32 -122 10 -298 92 -389 33 -36 47 -62 53 -98 25 -131 105 -282 238 -448 174
-218 383 -375 498 -375 164 0 424 260 624 623 24 43 41 81 38 83 -15 15 -86
15 -115 0 -41 -21 -50 -41 -107 -226 -26 -85 -52 -160 -57 -167 -11 -14 -85
-49 -122 -59 -35 -9 -35 -4 21 223 52 212 52 212 -14 240 -36 15 -189 17 -268
3 -41 -7 -52 -5 -63 8 -35 45 33 65 203 60 102 -4 140 -9 175 -25 87 -38 89
-61 31 -273 -51 -187 -51 -186 -26 -182 11 2 25 9 31 15 6 7 33 82 59 167 54
178 75 223 112 247 24 16 83 20 147 11 17 -3 27 14 59 97 22 55 51 146 66 202
l26 103 -25 46 c-32 61 -102 107 -205 136 -75 21 -102 22 -465 24 -422 2 -498
9 -610 60 -100 45 -190 162 -190 248 0 12 -4 27 -8 33 -5 8 -17 -26 -31 -85z"/>
<path d="M2535 1120 c-24 -27 -14 -35 15 -12 14 11 19 21 13 25 -6 4 -18 -2
-28 -13z"/>
<path d="M280 910 l0 -150 95 0 c57 0 95 4 95 10 0 6 -35 10 -85 10 l-85 0 0
140 c0 87 -4 140 -10 140 -6 0 -10 -57 -10 -150z"/>
<path d="M631 1018 c-10 -24 -40 -88 -65 -142 -47 -99 -60 -164 -15 -73 l23
47 86 0 86 0 23 -47 c13 -27 26 -43 28 -37 5 16 -120 287 -135 292 -7 2 -21
-16 -31 -40z m67 -60 c18 -40 32 -76 32 -80 0 -5 -31 -8 -70 -8 -38 0 -70 3
-70 8 0 12 65 152 71 152 3 0 20 -33 37 -72z"/>
<path d="M870 910 l0 -150 58 0 c126 0 172 23 172 86 0 28 -6 38 -31 53 -30
18 -30 20 -11 30 25 13 35 52 23 84 -12 32 -57 47 -142 47 l-69 0 0 -150z
m180 110 c26 -26 25 -46 -5 -75 -21 -22 -33 -25 -90 -25 l-65 0 0 60 0 60 70
0 c57 0 74 -4 90 -20z m12 -137 c10 -9 18 -29 18 -44 0 -40 -41 -59 -125 -59
l-65 0 0 60 0 60 77 0 c57 0 81 -4 95 -17z"/>
<path d="M1233 1041 c-42 -26 -65 -73 -65 -132 0 -82 51 -139 131 -146 59 -5
108 21 138 73 38 65 25 142 -31 193 -37 35 -127 41 -173 12z m112 -1 c26 0 75
-52 86 -91 25 -82 -32 -169 -112 -169 -91 0 -137 57 -131 162 4 52 84 116 130
102 8 -2 20 -4 27 -4z"/>
<path d="M1540 909 c0 -97 4 -148 10 -144 6 3 10 33 10 66 l0 59 45 0 c43 0
46 -2 97 -65 45 -57 68 -77 68 -60 0 3 -20 31 -45 62 l-45 58 28 13 c37 19 52
40 52 75 0 64 -39 87 -151 87 l-69 0 0 -151z m178 115 c15 -10 22 -25 22 -48
0 -50 -27 -68 -110 -74 l-70 -5 0 72 0 71 68 0 c45 0 75 -5 90 -16z"/>
<path d="M1890 923 c-76 -168 -74 -163 -62 -163 5 0 18 20 29 45 l18 45 87 0
87 0 20 -45 c11 -25 25 -45 31 -45 7 0 10 4 8 8 -32 81 -136 292 -144 292 -6
0 -39 -62 -74 -137z m78 -51 c-39 -2 -72 -1 -75 1 -2 2 13 40 33 83 l36 79 39
-80 38 -80 -71 -3z"/>
<path d="M2120 1050 c0 -5 23 -10 50 -10 l50 0 0 -140 c0 -87 4 -140 10 -140
6 0 10 53 10 140 l0 140 50 0 c28 0 50 5 50 10 0 6 -43 10 -110 10 -67 0 -110
-4 -110 -10z"/>
<path d="M2443 1041 c-43 -27 -63 -69 -63 -131 0 -86 47 -140 129 -147 60 -5
109 20 138 72 37 66 25 143 -31 194 -37 35 -127 41 -173 12z m112 -1 c26 0 75
-52 86 -91 34 -113 -77 -208 -181 -154 -64 33 -82 147 -34 204 25 31 77 53
102 45 8 -2 20 -4 27 -4z"/>
<path d="M2750 909 c0 -97 4 -148 10 -144 6 3 10 33 10 66 l0 59 48 0 c46 -1
48 -2 96 -65 42 -56 66 -78 66 -60 0 3 -20 31 -45 62 l-45 58 28 13 c37 19 52
40 52 75 0 64 -39 87 -151 87 l-69 0 0 -151z m178 115 c15 -10 22 -25 22 -48
0 -50 -27 -68 -110 -74 l-70 -5 0 72 0 71 68 0 c45 0 75 -5 90 -16z"/>
<path d="M3052 915 c2 -88 7 -145 13 -145 6 0 11 57 13 145 2 126 0 145 -13
145 -13 0 -15 -19 -13 -145z"/>
<path d="M3228 1045 c-29 -16 -62 -65 -72 -108 -17 -72 47 -164 122 -174 147
-20 230 159 122 262 -25 24 -40 29 -87 32 -39 2 -67 -2 -85 -12z m140 -22 c31
-19 62 -72 62 -106 0 -104 -100 -168 -190 -122 -48 25 -75 92 -59 149 25 91
110 127 187 79z"/>
<path d="M3650 910 l0 -153 75 6 c122 9 179 56 179 147 0 54 -18 87 -68 124
-21 16 -46 22 -107 25 l-79 3 0 -152z m165 114 c44 -21 68 -59 69 -110 2 -79
-65 -134 -161 -134 l-53 0 0 130 0 130 56 0 c31 0 71 -7 89 -16z"/>
<path d="M3982 913 l3 -148 103 -3 c65 -2 102 1 102 8 0 6 -36 10 -95 10 l-95
0 0 60 0 60 85 0 c50 0 85 4 85 10 0 6 -35 10 -85 10 l-85 0 0 60 0 60 95 0
c57 0 95 4 95 10 0 6 -42 10 -105 10 l-106 0 3 -147z"/>
<path d="M3816 630 l-26 -40 40 0 c28 0 52 8 80 29 l39 28 -38 12 c-58 17 -66
14 -95 -29z"/>
<path d="M1299 556 c-103 -28 -154 -101 -147 -210 8 -125 87 -192 218 -184 59
3 74 8 107 34 21 17 38 36 38 42 0 6 -15 22 -34 36 -33 25 -34 25 -58 6 -75
-59 -162 -15 -163 81 0 35 6 52 24 72 36 39 72 44 122 18 l43 -23 36 27 36 28
-27 28 c-44 46 -124 65 -195 45z"/>
<path d="M1696 559 c-140 -33 -205 -185 -131 -304 40 -65 97 -95 178 -95 111
0 185 56 208 158 35 148 -101 276 -255 241z m121 -124 c82 -94 -20 -231 -124
-166 -47 29 -62 86 -37 137 11 22 30 45 44 52 36 18 91 8 117 -23z"/>
<path d="M3077 556 c-67 -18 -97 -43 -129 -106 -41 -79 -35 -145 20 -219 54
-73 187 -94 290 -46 l52 24 0 91 0 90 -90 0 -90 0 0 -40 0 -40 40 0 c36 0 40
-3 40 -24 0 -28 -16 -36 -69 -36 -74 0 -125 73 -101 145 23 69 82 91 158 59
37 -15 37 -15 65 16 15 16 27 35 27 41 0 14 -76 46 -125 53 -22 3 -62 -1 -88
-8z"/>
<path d="M4947 556 c-150 -41 -196 -240 -81 -348 38 -36 74 -48 139 -48 67 0
101 13 142 52 l32 31 -41 29 -40 30 -25 -23 c-35 -34 -94 -32 -130 4 -23 23
-28 36 -28 78 0 45 4 54 34 81 28 25 39 29 69 24 19 -3 44 -14 56 -25 l21 -20
40 33 c35 30 38 35 25 51 -39 48 -138 71 -213 51z"/>
<path d="M270 360 l0 -200 55 0 55 0 0 60 0 60 55 0 c106 0 165 52 165 145 0
37 -6 52 -32 81 -40 43 -81 53 -205 54 l-93 0 0 -200z m211 89 c5 -8 9 -26 9
-41 0 -33 -24 -48 -74 -48 l-36 0 0 56 0 57 46 -6 c26 -2 50 -11 55 -18z"/>
<path d="M682 540 c-46 -29 -67 -82 -53 -132 14 -46 38 -63 133 -92 58 -17 73
-26 73 -41 0 -31 -84 -33 -133 -5 l-37 22 -27 -33 c-16 -18 -28 -36 -28 -39 0
-19 89 -53 150 -58 116 -8 178 28 187 110 8 65 -27 101 -120 129 -82 24 -108
42 -89 61 17 17 73 13 112 -7 33 -17 34 -17 52 6 40 51 40 56 0 75 -23 11 -66
20 -112 22 -62 2 -81 0 -108 -18z"/>
<path d="M990 360 l0 -200 55 0 55 0 0 200 0 200 -55 0 -55 0 0 -200z"/>
<path d="M2000 360 l0 -200 150 0 150 0 0 50 0 50 -95 0 -95 0 0 150 0 150
-55 0 -55 0 0 -200z"/>
<path d="M2340 360 l0 -200 55 0 55 0 0 200 0 200 -55 0 -55 0 0 -200z"/>
<path d="M2510 360 l0 -200 50 0 49 0 3 110 3 110 85 -110 85 -109 48 -1 47 0
0 200 0 200 -55 0 -55 0 0 -106 0 -107 -81 107 -82 106 -48 0 -49 0 0 -200z"/>
<path d="M3350 438 c0 -68 5 -141 11 -163 21 -78 79 -115 176 -115 83 1 135
27 162 82 18 39 21 62 21 181 l0 137 -55 0 -55 0 0 -130 c0 -126 -1 -132 -25
-155 -29 -30 -64 -32 -96 -6 -23 18 -24 26 -27 155 l-4 136 -54 0 -54 0 0
-122z"/>
<path d="M3770 360 l0 -200 55 0 55 0 0 200 0 200 -55 0 -55 0 0 -200z"/>
<path d="M4005 550 c-38 -15 -67 -57 -72 -104 -5 -40 -2 -48 24 -75 19 -18 55
-37 98 -50 77 -24 96 -36 88 -57 -8 -21 -91 -18 -136 6 l-37 20 -29 -32 c-35
-39 -30 -47 41 -78 41 -18 66 -21 124 -18 88 4 123 25 142 85 26 81 -25 138
-148 164 -56 12 -74 34 -45 55 20 15 64 9 108 -13 16 -8 30 -13 31 -11 1 2 12
16 24 32 12 16 22 33 22 38 0 5 -19 18 -42 28 -45 21 -155 26 -193 10z"/>
<path d="M4260 510 l0 -50 60 0 60 0 0 -150 0 -150 55 0 55 0 0 150 0 150 60
0 60 0 0 50 0 50 -175 0 -175 0 0 -50z"/>
<path d="M4650 360 l0 -200 50 0 50 0 0 200 0 200 -50 0 -50 0 0 -200z"/>
<path d="M5267 375 c-43 -102 -80 -192 -83 -200 -5 -12 4 -15 50 -15 54 0 56
1 70 35 l15 35 80 0 79 0 12 -35 c11 -35 12 -35 70 -35 l59 0 -39 92 c-21 51
-58 140 -83 198 l-44 105 -54 3 -55 3 -77 -186z m172 -47 c1 -5 -19 -8 -43 -8
l-44 0 21 55 22 56 22 -48 c12 -26 22 -51 22 -55z"/>
</g>
</svg>
