<?xml version="1.0" standalone="no"?>
<!DOCTYPE svg PUBLIC "-//W3C//DTD SVG 20010904//EN"
 "http://www.w3.org/TR/2001/REC-SVG-20010904/DTD/svg10.dtd">
<svg version="1.0" xmlns="http://www.w3.org/2000/svg"
 width="860.000000pt" height="335.000000pt" viewBox="0 0 860.000000 335.000000"
 preserveAspectRatio="xMidYMid meet">

<g transform="translate(0.000000,335.000000) scale(0.100000,-0.100000)"
fill="#000000" stroke="none">
<path d="M7440 2665 c-161 -33 -280 -95 -391 -205 -123 -123 -183 -261 -196
-450 -21 -323 165 -590 488 -702 93 -32 96 -33 279 -32 184 0 213 3 403 45
l97 22 0 189 c0 219 8 252 62 266 28 7 34 13 36 40 l3 32 -215 0 -216 0 0 -33
c0 -28 5 -35 34 -45 18 -7 41 -21 50 -31 25 -28 36 -123 28 -251 l-7 -114 -48
-18 c-115 -43 -284 -29 -417 34 -140 67 -255 227 -295 412 -25 114 -17 292 19
402 63 195 197 318 392 359 127 27 273 11 359 -40 49 -28 120 -104 143 -152
14 -30 20 -33 60 -33 l45 0 -8 123 c-4 67 -9 124 -11 126 -6 6 -135 30 -279
51 -148 23 -319 24 -415 5z"/>
<path d="M2350 2633 c0 -29 4 -33 38 -43 21 -5 49 -21 63 -36 l24 -26 3 -536
c3 -618 6 -595 -80 -622 -44 -14 -48 -18 -48 -47 l0 -33 265 0 265 0 0 30 c0
26 -4 30 -37 36 -57 10 -91 31 -110 67 -16 28 -18 66 -21 290 l-3 257 185 0
c101 0 196 -4 211 -10 14 -5 34 -23 43 -40 12 -22 24 -30 45 -30 l27 0 0 130
0 130 -28 0 c-22 0 -30 -7 -39 -30 -19 -51 -58 -60 -263 -60 l-180 0 2 263 3
262 220 -1 c133 -1 237 -6 263 -13 46 -13 107 -61 117 -92 5 -15 16 -19 47
-19 32 0 39 3 34 16 -3 9 -6 55 -6 102 l0 87 -520 0 -520 0 0 -32z"/>
<path d="M350 2631 c0 -24 6 -31 45 -46 25 -9 51 -26 58 -38 9 -16 13 -143 17
-487 l5 -465 27 -57 c50 -107 143 -182 278 -223 74 -23 302 -32 397 -15 153
25 280 115 341 240 56 113 62 166 62 555 0 193 5 368 10 389 11 51 39 87 78
105 25 11 32 21 32 43 l0 28 -190 0 -190 0 0 -28 c0 -23 6 -30 42 -42 93 -33
101 -78 95 -529 -3 -288 -7 -356 -21 -406 -33 -113 -92 -186 -185 -229 -39
-18 -65 -21 -176 -21 -127 0 -132 1 -197 33 -85 42 -132 95 -158 180 -19 60
-20 94 -20 491 0 477 -2 460 70 482 34 11 40 16 40 41 l0 28 -230 0 -230 0 0
-29z"/>
<path d="M4396 2625 c-92 -38 -163 -90 -271 -199 -124 -127 -163 -180 -145
-201 7 -8 17 -15 23 -15 5 0 54 42 107 94 124 120 195 146 221 79 14 -36 2
-77 -167 -586 -180 -539 -176 -502 -54 -502 49 0 74 4 85 15 8 9 37 76 64 150
102 286 217 466 456 718 146 154 243 221 342 237 83 13 103 -49 62 -195 -11
-40 -81 -253 -155 -473 -74 -220 -134 -408 -134 -419 0 -46 141 -63 180 -22 9
11 38 73 65 139 132 331 259 521 506 760 193 187 322 252 380 194 17 -17 20
-30 17 -68 -3 -25 -71 -235 -153 -466 -160 -456 -171 -503 -128 -546 50 -50
178 -32 293 42 84 53 310 284 310 316 0 39 -32 27 -105 -37 -133 -117 -212
-155 -245 -115 -15 18 -18 7 169 555 113 331 131 393 131 447 0 51 -4 67 -24
90 -23 26 -30 28 -99 28 -68 0 -81 -4 -168 -47 -52 -26 -134 -77 -183 -115
-116 -87 -317 -282 -436 -422 -51 -61 -95 -109 -98 -107 -2 3 33 119 78 260
111 347 114 397 24 426 -161 53 -480 -158 -779 -515 -162 -194 -156 -202 -60
80 46 138 89 271 94 296 13 56 -1 112 -32 134 -31 22 -103 18 -171 -10z"/>
<path d="M4030 645 l0 -245 1030 0 1030 0 0 245 0 245 -1030 0 -1030 0 0 -245z"/>
</g>
</svg>
