<?xml version="1.0" standalone="no"?>
<!DOCTYPE svg PUBLIC "-//W3C//DTD SVG 20010904//EN"
 "http://www.w3.org/TR/2001/REC-SVG-20010904/DTD/svg10.dtd">
<svg version="1.0" xmlns="http://www.w3.org/2000/svg"
 width="551.000000pt" height="542.000000pt" viewBox="0 0 551.000000 542.000000"
 preserveAspectRatio="xMidYMid meet">

<g transform="translate(0.000000,542.000000) scale(0.100000,-0.100000)"
fill="#000000" stroke="none">
<path d="M2514 5399 c-46 -17 -62 -82 -29 -119 25 -27 86 -27 110 0 51 56 -10
146 -81 119z"/>
<path d="M2690 5390 c-15 -15 -20 -31 -18 -57 8 -89 122 -94 144 -6 16 62 -79
110 -126 63z"/>
<path d="M2890 5380 c-20 -20 -26 -54 -14 -85 10 -26 63 -45 93 -34 80 31 61
139 -24 139 -22 0 -43 -8 -55 -20z"/>
<path d="M2297 5368 c-54 -42 -27 -137 40 -138 34 0 53 11 68 40 35 69 -47
143 -108 98z"/>
<path d="M3095 5355 c-14 -13 -25 -36 -25 -50 0 -33 41 -75 73 -75 40 0 77 36
77 75 0 24 -7 39 -26 54 -35 28 -69 26 -99 -4z"/>
<path d="M2090 5320 c-30 -30 -27 -83 6 -109 54 -42 118 -13 118 54 0 66 -78
101 -124 55z"/>
<path d="M3292 5317 c-31 -33 -29 -80 4 -106 50 -39 108 -16 120 46 13 67 -77
110 -124 60z"/>
<path d="M1891 5254 c-12 -15 -21 -33 -21 -40 0 -29 24 -64 52 -73 53 -19 98
15 98 73 0 63 -89 90 -129 40z"/>
<path d="M3481 5254 c-24 -30 -26 -43 -10 -78 34 -73 139 -44 139 38 0 63 -89
90 -129 40z"/>
<path d="M1701 5184 c-29 -36 -26 -60 9 -96 25 -24 36 -29 58 -23 43 11 62 34
62 76 0 45 -27 69 -76 69 -23 0 -39 -8 -53 -26z"/>
<path d="M3671 5184 c-30 -38 -26 -68 11 -99 23 -20 38 -25 57 -20 35 8 61 41
61 76 0 66 -88 95 -129 43z"/>
<path d="M2606 5013 c4 -82 8 -150 10 -152 2 -2 11 -1 20 3 13 5 16 17 12 70
-2 36 -1 63 3 61 3 -3 16 -32 28 -65 17 -45 27 -60 42 -60 24 0 24 -2 -6 72
-24 59 -24 62 -7 81 24 26 22 105 -3 124 -11 7 -38 13 -63 13 l-43 0 7 -147z
m69 67 c0 -35 -4 -45 -17 -48 -15 -3 -18 4 -18 48 0 44 3 51 18 48 13 -3 17
-13 17 -48z"/>
<path d="M2882 5083 c-12 -43 -30 -108 -41 -145 -19 -67 -19 -68 0 -68 12 0
21 9 25 25 5 19 13 25 34 25 23 0 29 -5 34 -30 4 -21 11 -30 25 -30 17 0 19 5
15 33 -3 17 -13 84 -22 147 -13 88 -21 115 -33 118 -12 2 -21 -16 -37 -75z
m42 -60 c6 -68 5 -73 -13 -73 -11 0 -22 3 -24 8 -4 7 24 145 28 140 1 -2 5
-36 9 -75z"/>
<path d="M2403 5143 c-18 -2 -33 -10 -33 -16 0 -7 7 -74 16 -149 l17 -138 41
6 c59 8 66 11 66 30 0 13 -7 16 -34 11 -40 -6 -46 3 -46 64 0 35 3 39 25 39
18 0 25 5 25 18 0 15 -6 18 -29 14 -25 -3 -29 0 -35 28 -11 56 -9 60 30 60 28
0 35 3 32 18 -3 18 -22 22 -75 15z"/>
<path d="M1543 5120 c-46 -19 -57 -83 -20 -118 72 -67 172 34 102 103 -25 26
-45 30 -82 15z"/>
<path d="M3120 5128 c0 -2 -11 -66 -25 -142 -14 -77 -24 -141 -22 -142 1 -2
26 -6 55 -10 43 -5 52 -4 52 8 0 9 -13 18 -30 22 -36 7 -36 8 -10 151 11 60
20 110 20 112 0 2 -9 3 -20 3 -11 0 -20 -1 -20 -2z"/>
<path d="M3873 5118 c-33 -16 -48 -60 -31 -95 27 -56 109 -57 132 -1 17 39 11
63 -22 88 -27 22 -46 24 -79 8z"/>
<path d="M2122 5079 c-18 -4 -35 -8 -37 -10 -3 -3 55 -232 70 -276 6 -16 61 2
94 31 21 19 23 27 17 81 -4 35 -18 83 -34 115 -30 59 -52 72 -110 59z m75 -79
c29 -58 40 -134 23 -155 -29 -35 -34 -24 -88 188 -4 15 0 18 19 15 17 -2 31
-16 46 -48z"/>
<path d="M1363 5018 c-69 -33 -40 -138 39 -138 68 0 95 87 42 129 -29 23 -48
25 -81 9z"/>
<path d="M1915 5013 c-22 -7 -43 -17 -48 -22 -4 -4 15 -67 44 -140 48 -124 53
-132 75 -127 50 13 74 26 74 42 0 16 -10 16 -59 3 -9 -3 -21 12 -32 43 l-19
48 25 6 c16 4 25 13 25 26 0 12 -5 18 -12 15 -7 -3 -21 -8 -31 -12 -13 -6 -21
1 -33 31 -15 35 -15 39 2 51 10 7 24 13 31 13 14 0 16 9 5 26 -5 8 -18 7 -47
-3z"/>
<path d="M3533 5013 c-3 -10 -26 -69 -50 -132 -24 -63 -42 -120 -39 -127 6
-16 68 -28 100 -20 32 8 87 117 93 184 5 56 -7 75 -60 97 -35 14 -38 14 -44
-2z m62 -88 c-1 -84 -57 -175 -98 -159 -21 8 60 216 82 212 12 -3 16 -16 16
-53z"/>
<path d="M4035 5005 c-30 -30 -32 -64 -4 -99 41 -52 129 -20 129 48 0 34 -41
76 -75 76 -14 0 -37 -11 -50 -25z"/>
<path d="M1698 4914 l-48 -24 65 -130 c36 -72 68 -130 73 -130 4 0 13 4 20 9
11 6 7 21 -17 68 l-30 60 25 12 c45 20 18 45 -28 26 -12 -5 -21 2 -32 24 -22
41 -20 50 9 63 24 11 33 32 18 41 -5 3 -29 -6 -55 -19z"/>
<path d="M4222 4904 c-84 -35 -31 -163 55 -133 28 9 53 44 53 73 0 20 -37 63
-58 68 -11 3 -33 0 -50 -8z"/>
<path d="M1176 4888 c-9 -12 -16 -37 -16 -54 0 -66 82 -92 127 -40 28 33 29
56 2 90 -27 35 -90 37 -113 4z"/>
<path d="M3732 4785 c-34 -69 -62 -127 -62 -130 0 -6 77 -45 90 -45 19 0 10
29 -12 41 -13 6 -24 13 -26 14 -2 1 7 23 19 48 22 45 23 46 50 32 23 -12 28
-12 32 -1 3 8 -5 21 -18 30 -24 16 -24 17 -8 52 13 26 22 34 35 30 10 -3 27
-9 38 -12 37 -12 22 25 -20 46 -21 11 -43 20 -47 20 -5 0 -36 -56 -71 -125z"/>
<path d="M1043 4780 c-45 -18 -57 -81 -23 -118 43 -46 130 -13 130 50 0 51
-58 88 -107 68z"/>
<path d="M4385 4780 c-31 -12 -48 -38 -48 -70 0 -43 28 -70 73 -70 45 0 73 27
73 71 0 49 -54 87 -98 69z"/>
<path d="M2562 4735 c-24 -18 -30 -63 -10 -83 21 -21 66 -14 83 12 12 18 13
30 6 50 -6 14 -15 26 -20 26 -5 0 -15 2 -23 5 -7 3 -23 -2 -36 -10z"/>
<path d="M2702 4738 c-17 -17 -15 -64 4 -82 21 -22 50 -20 74 4 24 24 25 38 4
68 -17 24 -62 30 -82 10z"/>
<path d="M2862 4734 c-51 -35 -2 -120 52 -92 37 20 46 51 24 80 -20 25 -51 30
-76 12z"/>
<path d="M2406 4714 c-19 -18 -21 -65 -4 -82 20 -20 65 -14 82 10 21 30 20 44
-4 68 -24 24 -53 26 -74 4z"/>
<path d="M3012 4714 c-41 -29 -19 -94 33 -94 52 0 74 65 33 94 -12 9 -27 16
-33 16 -6 0 -21 -7 -33 -16z"/>
<path d="M1323 4681 c-18 -15 -33 -31 -33 -35 0 -6 135 -182 166 -215 11 -12
19 -9 54 19 32 25 38 35 29 46 -9 11 -15 10 -37 -7 l-26 -20 -32 38 -32 38 20
22 c27 29 14 50 -18 28 -23 -15 -26 -14 -49 12 -30 35 -30 37 -2 60 24 18 26
43 4 43 -7 -1 -27 -13 -44 -29z"/>
<path d="M2257 4682 c-33 -37 -11 -92 37 -92 26 0 56 29 56 53 0 23 -35 57
-58 57 -11 0 -26 -8 -35 -18z"/>
<path d="M3156 4684 c-19 -18 -21 -65 -4 -82 20 -20 65 -14 82 10 21 30 20 44
-4 68 -24 24 -53 26 -74 4z"/>
<path d="M4075 4574 c-86 -93 -96 -107 -83 -120 13 -13 22 -7 73 56 33 38 60
70 62 70 2 0 -15 -36 -37 -80 -22 -44 -40 -84 -40 -90 0 -23 29 -7 95 53 74
67 75 65 7 -31 -37 -52 -42 -65 -31 -78 11 -13 24 2 92 106 69 107 86 150 60
150 -4 0 -43 -32 -85 -71 -43 -39 -78 -68 -78 -65 0 4 20 47 45 97 41 81 48
109 26 109 -4 0 -51 -48 -106 -106z"/>
<path d="M2123 4649 c-12 -4 -25 -20 -29 -35 -6 -22 -2 -32 20 -50 38 -34 86
-14 86 36 0 41 -37 64 -77 49z"/>
<path d="M3320 4653 c-21 -7 -40 -33 -40 -54 0 -40 69 -66 98 -37 20 20 14 65
-10 82 -24 17 -25 17 -48 9z"/>
<path d="M881 4633 c-11 -10 -24 -32 -27 -50 -5 -26 -1 -37 19 -57 51 -51 127
-22 127 48 0 62 -72 97 -119 59z"/>
<path d="M4511 4633 c-11 -10 -24 -32 -27 -50 -13 -67 77 -110 124 -60 31 33
29 80 -4 106 -33 26 -65 27 -93 4z"/>
<path d="M1966 4584 c-22 -21 -20 -50 4 -74 24 -24 38 -25 68 -4 24 16 28 44
12 75 -13 23 -62 26 -84 3z"/>
<path d="M3434 4575 c-33 -50 20 -104 71 -71 27 18 34 63 13 84 -21 21 -66 14
-84 -13z"/>
<path d="M1836 4527 c-21 -16 -24 -60 -6 -82 7 -8 25 -15 40 -15 33 0 53 21
53 57 0 28 -25 53 -53 53 -9 0 -24 -6 -34 -13z"/>
<path d="M3577 4522 c-34 -37 -11 -92 38 -92 50 0 73 60 37 93 -24 22 -55 21
-75 -1z"/>
<path d="M1111 4494 c-37 -31 -41 -24 82 -154 l87 -93 24 22 c14 13 30 36 36
52 11 25 9 34 -14 73 -14 24 -47 62 -72 85 -57 50 -97 54 -143 15z m127 -58
c59 -56 76 -89 61 -118 -12 -22 -15 -19 -90 62 -68 73 -76 87 -63 97 22 16 42
7 92 -41z"/>
<path d="M746 4479 c-34 -27 -36 -77 -3 -107 62 -58 152 11 113 87 -24 46 -67
54 -110 20z"/>
<path d="M4646 4479 c-52 -41 -20 -129 48 -129 34 0 76 41 76 75 0 33 -41 75
-73 75 -13 0 -36 -9 -51 -21z"/>
<path d="M4312 4368 c-63 -61 -101 -106 -98 -114 3 -8 9 -14 13 -14 5 0 55 46
111 103 81 81 100 106 90 114 -10 9 -36 -11 -116 -89z"/>
<path d="M1694 4435 c-32 -50 22 -103 72 -70 26 17 33 62 12 83 -21 21 -66 14
-84 -13z"/>
<path d="M3706 4444 c-22 -21 -20 -50 4 -74 24 -24 38 -25 68 -4 24 17 30 62
10 82 -17 17 -64 15 -82 -4z"/>
<path d="M1576 4364 c-34 -33 -9 -94 38 -94 25 0 56 28 56 51 0 48 -62 76 -94
43z"/>
<path d="M3836 4364 c-34 -34 -9 -94 39 -94 24 0 55 33 55 57 0 20 -38 53 -59
53 -11 0 -27 -7 -35 -16z"/>
<path d="M2826 4334 c-9 -8 -16 -20 -16 -26 0 -6 -11 -25 -24 -42 -13 -17 -33
-51 -46 -75 -25 -51 -18 -83 25 -103 19 -9 25 -19 25 -44 0 -23 10 -44 30 -67
24 -28 30 -44 30 -80 0 -41 -4 -48 -39 -77 -48 -38 -58 -63 -37 -95 22 -33 57
-55 107 -66 52 -12 126 8 190 50 l44 30 3 -25 c4 -33 -29 -70 -83 -95 -55 -26
-359 -28 -406 -3 -21 10 -43 13 -69 9 -33 -6 -40 -3 -59 21 -11 15 -21 32 -21
39 0 6 -14 33 -32 59 -28 44 -30 51 -20 79 16 41 3 52 -41 34 -58 -25 -73
-110 -26 -153 24 -22 24 -30 -1 -37 -23 -6 -27 -41 -8 -82 24 -53 37 -55 426
-55 344 0 360 1 385 20 35 28 67 98 67 148 0 57 -27 121 -54 128 -16 4 -26 22
-43 77 -13 40 -24 81 -25 91 -4 23 -28 34 -28 12 0 -8 -5 -27 -12 -41 l-11
-25 -23 37 c-13 21 -24 52 -24 70 0 35 -17 53 -31 32 -15 -25 -32 -116 -25
-142 3 -14 18 -39 32 -56 22 -26 25 -37 19 -71 -8 -45 -16 -49 -45 -20 -26 26
-27 26 -44 -15 -11 -25 -19 -33 -30 -29 -23 9 -20 20 17 71 28 40 32 52 30
102 -2 31 2 89 7 130 12 88 2 108 -30 57 -25 -42 -55 -47 -64 -12 -8 32 2 56
31 81 l25 20 -21 55 c-12 30 -21 65 -21 78 0 26 -12 28 -34 6z m29 -90 c19
-46 19 -54 0 -54 -33 0 -48 -106 -19 -134 19 -19 55 -21 73 -3 12 10 12 8 5
-8 -4 -11 -8 -56 -8 -100 -1 -76 -3 -83 -33 -122 -37 -46 -40 -59 -16 -85 22
-24 57 -23 75 3 12 19 17 20 37 10 33 -18 46 -9 60 41 12 41 15 44 42 40 38
-6 49 20 26 60 -9 17 -17 37 -17 46 1 25 37 -67 45 -111 5 -33 9 -36 29 -31
29 7 46 -28 46 -100 0 -43 -6 -61 -30 -94 l-30 -42 -365 0 c-352 0 -366 1
-385 20 -11 11 -20 28 -20 38 0 11 9 27 20 37 26 24 25 39 -5 63 -27 21 -33
59 -15 93 16 29 25 23 26 -16 0 -23 9 -45 26 -63 14 -15 31 -43 37 -63 24 -75
33 -77 356 -85 212 -5 248 1 300 56 21 22 28 40 29 71 1 62 -18 68 -81 26 -29
-19 -69 -41 -89 -47 -66 -22 -146 2 -178 53 -9 14 -2 25 37 62 44 43 47 49 47
96 0 40 -5 54 -25 73 -27 25 -45 65 -45 99 0 13 -9 26 -22 32 -38 17 -45 41
-24 77 22 37 66 98 72 98 2 0 11 -16 19 -36z m150 -274 c18 -22 36 -102 22
-97 -22 7 -53 78 -49 110 3 18 7 25 10 17 2 -8 10 -22 17 -30z m75 -106 c0 -8
-4 -12 -10 -9 -5 3 -10 13 -10 21 0 8 5 12 10 9 6 -3 10 -13 10 -21z"/>
<path d="M632 4333 c-21 -8 -43 -61 -36 -88 21 -83 144 -67 144 19 0 53 -57
90 -108 69z"/>
<path d="M4765 4315 c-14 -13 -25 -36 -25 -50 0 -35 42 -75 78 -75 36 0 72 37
72 74 0 34 -41 76 -75 76 -14 0 -37 -11 -50 -25z"/>
<path d="M4418 4241 c-92 -76 -105 -91 -95 -105 11 -14 22 -8 95 54 l83 71
-62 -96 c-88 -137 -71 -143 76 -25 105 84 115 94 101 108 -17 17 -16 18 -123
-82 -24 -22 -43 -37 -43 -33 0 4 25 44 56 88 53 75 63 110 32 108 -7 0 -61
-40 -120 -88z"/>
<path d="M930 4297 c0 -7 41 -63 91 -125 75 -94 93 -111 105 -101 13 10 12 15
-8 36 l-22 23 22 23 c19 19 25 20 43 9 16 -10 24 -11 35 -1 8 7 11 16 7 20
-12 12 -250 129 -262 129 -6 0 -11 -6 -11 -13z m170 -107 c0 -4 -6 -12 -13
-19 -10 -8 -22 -2 -48 27 -64 68 -64 74 -1 36 34 -20 62 -40 62 -44z"/>
<path d="M1456 4264 c-25 -24 -20 -61 10 -81 24 -15 29 -15 53 -2 49 27 35 99
-19 99 -16 0 -36 -7 -44 -16z"/>
<path d="M3945 4256 c-33 -50 20 -104 70 -72 27 18 34 63 13 84 -21 21 -66 14
-83 -12z"/>
<path d="M2655 4183 c-32 -34 -45 -64 -45 -104 0 -17 -7 -37 -15 -45 -22 -22
-18 -60 8 -84 12 -12 23 -30 23 -40 2 -38 27 -80 50 -86 43 -11 71 3 78 37 12
61 7 88 -19 105 -32 21 -47 79 -44 165 2 37 1 71 -3 74 -3 3 -18 -6 -33 -22z
m15 -141 c10 -58 17 -76 36 -89 19 -12 24 -24 24 -58 0 -43 -15 -60 -42 -50
-17 7 -38 53 -38 81 0 12 -11 29 -25 38 -30 20 -31 26 -5 56 13 15 20 37 20
65 0 39 13 73 17 43 0 -7 7 -46 13 -86z"/>
<path d="M1347 4162 c-33 -36 -8 -92 40 -92 25 0 53 30 53 57 0 46 -62 69 -93
35z"/>
<path d="M4053 4154 c-15 -24 -15 -29 -2 -53 28 -50 102 -33 102 24 0 55 -69
75 -100 29z"/>
<path d="M511 4153 c-11 -10 -24 -32 -27 -50 -13 -67 77 -110 124 -60 31 33
29 80 -4 106 -33 26 -65 27 -93 4z"/>
<path d="M4881 4153 c-11 -10 -24 -32 -27 -50 -13 -67 77 -110 124 -60 31 33
29 80 -4 106 -33 26 -65 27 -93 4z"/>
<path d="M790 4097 c-18 -14 -50 -58 -50 -68 0 -12 239 -161 249 -155 5 4 17
26 26 51 16 41 16 46 1 69 -8 14 -35 38 -58 54 -90 62 -136 75 -168 49z m90
-47 c81 -41 132 -105 101 -125 -6 -3 -49 20 -98 51 -106 68 -97 60 -90 79 9
21 40 19 87 -5z"/>
<path d="M1247 4052 c-33 -37 -11 -92 37 -92 25 0 56 28 56 51 0 26 -30 59
-54 59 -13 0 -30 -8 -39 -18z"/>
<path d="M4166 4054 c-19 -18 -21 -65 -4 -82 20 -20 65 -14 82 10 21 30 20 44
-4 68 -24 24 -53 26 -74 4z"/>
<path d="M4596 4019 c-72 -27 -131 -51 -133 -53 -2 -2 -1 -10 3 -19 4 -13 10
-14 24 -7 29 16 46 12 58 -14 8 -19 7 -27 -11 -44 -16 -16 -18 -24 -9 -35 10
-12 31 5 118 94 59 60 103 112 100 118 -9 15 -4 16 -150 -40z m59 -31 c-66
-59 -72 -62 -84 -39 -10 17 -4 23 52 49 84 41 88 39 32 -10z"/>
<path d="M2472 3964 c-25 -51 -22 -73 14 -109 27 -27 31 -62 9 -91 -37 -48 -1
-101 62 -91 57 9 83 45 83 113 0 40 -4 56 -15 61 -9 3 -22 18 -31 34 -8 16
-28 36 -44 44 -25 13 -30 22 -30 50 0 49 -21 44 -48 -11z m60 -60 c16 -8 34
-28 40 -45 5 -16 16 -29 23 -29 18 0 26 -41 15 -80 -12 -40 -24 -50 -67 -50
-38 0 -43 20 -16 67 20 36 12 76 -22 107 -25 23 -32 46 -18 60 4 4 9 2 11 -4
2 -6 17 -17 34 -26z"/>
<path d="M410 3970 c-30 -30 -27 -83 6 -109 30 -24 43 -26 78 -10 33 15 50 57
37 92 -19 48 -85 63 -121 27z"/>
<path d="M4972 3970 c-45 -42 -9 -130 53 -130 33 0 75 41 75 73 0 13 -9 36
-21 51 -26 33 -75 35 -107 6z"/>
<path d="M1156 3934 c-23 -22 -20 -71 3 -84 31 -16 59 -12 75 12 21 30 20 44
-4 68 -24 24 -53 26 -74 4z"/>
<path d="M4256 3934 c-34 -34 -9 -94 39 -94 24 0 55 33 55 57 0 20 -38 53 -59
53 -11 0 -27 -7 -35 -16z"/>
<path d="M656 3884 c-4 -9 -5 -18 -4 -19 2 -1 60 -33 130 -70 108 -56 129 -64
134 -50 4 9 5 17 3 19 -2 2 -61 33 -130 70 -108 56 -128 64 -133 50z"/>
<path d="M4759 3851 c-13 -10 -30 -40 -39 -67 -20 -58 -57 -87 -84 -65 -9 7
-16 22 -16 32 0 12 -5 16 -15 13 -21 -9 -19 -50 5 -74 45 -45 103 -16 145 72
25 52 34 63 55 63 15 0 28 -8 35 -21 12 -24 35 -21 35 5 0 9 -7 27 -16 39 -19
28 -72 30 -105 3z"/>
<path d="M1066 3798 c-21 -30 -20 -44 4 -68 24 -24 53 -26 74 -4 19 18 21 65
4 82 -20 20 -65 14 -82 -10z"/>
<path d="M1925 3690 c-59 -71 -114 -130 -121 -130 -10 0 -14 -14 -14 -50 0
-43 3 -50 20 -50 20 0 20 -7 20 -375 l0 -375 -55 0 -55 0 0 -50 0 -50 55 0 55
0 0 -35 0 -34 -137 -3 -138 -3 -3 -47 -3 -47 83 -3 83 -3 3 -37 3 -38 -235 0
-236 0 0 -65 0 -65 1520 0 1520 0 0 65 0 65 -230 0 -230 0 0 40 0 39 83 3 82
3 1 35 c2 61 4 60 -147 60 l-139 0 0 35 0 34 58 3 57 3 0 45 0 45 -57 3 -58 3
0 374 0 375 25 0 c23 0 25 3 25 49 0 42 -3 50 -22 55 -13 4 -69 63 -126 131
-56 69 -106 125 -111 125 -5 0 -57 -58 -116 -130 -59 -71 -114 -130 -121 -130
-10 0 -14 -14 -14 -50 0 -43 3 -50 20 -50 19 0 20 -7 20 -95 l0 -95 -40 0 -39
0 -3 123 -3 122 -435 0 -435 0 -3 -122 -3 -123 -39 0 -40 0 0 95 c0 95 0 95
25 95 23 0 25 3 25 49 0 41 -3 50 -19 53 -10 2 -66 60 -125 131 -59 70 -110
127 -115 127 -5 0 -57 -58 -116 -130z m207 -10 c46 -56 85 -105 86 -110 2 -6
-65 -10 -177 -10 -100 0 -181 2 -181 5 0 9 174 215 182 215 4 0 44 -45 90
-100z m1460 0 c46 -56 85 -105 86 -110 2 -6 -65 -10 -177 -10 -100 0 -181 2
-181 5 0 9 174 215 182 215 4 0 44 -45 90 -100z m-1322 -170 l0 -30 -227 2
-228 3 -3 28 -3 27 230 0 231 0 0 -30z m1460 0 l0 -30 -227 2 -228 3 -3 28 -3
27 230 0 231 0 0 -30z m-1120 -130 l0 -110 -124 0 -125 0 -3 88 c-5 144 -17
132 128 132 l124 0 0 -110z m290 0 l0 -110 -130 0 -130 0 0 110 0 110 130 0
130 0 0 -110z m283 0 l0 -105 -126 -3 -127 -3 0 111 0 111 127 -3 126 -3 0
-105z m-963 -295 l0 -375 -180 0 -180 0 0 375 0 375 180 0 180 0 0 -375z
m1460 0 l0 -375 -180 0 -180 0 0 375 0 375 180 0 180 0 0 -375z m-390 -110 l0
-265 -520 0 -520 0 0 265 0 265 520 0 520 0 0 -265z m508 -312 l3 -23 -1030 0
c-993 0 -1031 1 -1031 18 0 10 3 22 7 25 3 4 466 6 1027 5 l1021 -3 3 -22z
m-111 -90 l4 -33 -915 0 -916 0 0 35 0 35 912 -2 912 -3 3 -32z m283 -88 l0
-25 -1197 2 -1198 3 -3 23 -3 22 1200 0 1201 0 0 -25z m-170 -87 l0 -38 -1030
0 -1030 0 0 33 c0 19 2 36 4 38 2 2 466 4 1030 4 l1026 0 0 -37z m470 -103 l0
-35 -1495 0 -1495 0 0 35 0 35 1495 0 1495 0 0 -35z"/>
<path d="M1915 3337 c-3 -7 -4 -125 -3 -262 l3 -250 43 -3 42 -3 0 265 0 266
-40 0 c-24 0 -43 -5 -45 -13z m65 -252 c0 -228 -1 -235 -20 -235 -19 0 -20 7
-20 235 0 228 1 235 20 235 19 0 20 -7 20 -235z"/>
<path d="M2087 3343 c-4 -3 -7 -123 -7 -265 l0 -258 45 0 45 0 0 265 0 265
-38 0 c-21 0 -42 -3 -45 -7z m63 -258 c0 -228 -1 -235 -20 -235 -19 0 -20 7
-20 235 0 228 1 235 20 235 19 0 20 -7 20 -235z"/>
<path d="M3377 3343 c-4 -3 -7 -123 -7 -265 l0 -258 45 0 45 0 0 265 0 265
-38 0 c-21 0 -42 -3 -45 -7z m63 -258 c0 -228 -1 -235 -20 -235 -19 0 -20 7
-20 235 0 228 1 235 20 235 19 0 20 -7 20 -235z"/>
<path d="M3545 3337 c-3 -7 -4 -125 -3 -262 l3 -250 43 -3 42 -3 0 265 0 266
-40 0 c-24 0 -43 -5 -45 -13z m65 -252 c0 -228 -1 -235 -20 -235 -19 0 -20 7
-20 235 0 228 1 235 20 235 19 0 20 -7 20 -235z"/>
<path d="M4336 3804 c-23 -22 -20 -60 6 -78 29 -21 51 -20 71 2 34 37 11 92
-38 92 -13 0 -31 -7 -39 -16z"/>
<path d="M344 3798 c-22 -10 -44 -47 -44 -72 0 -7 9 -25 21 -40 26 -33 79 -36
109 -6 30 30 27 83 -6 109 -29 23 -48 25 -80 9z"/>
<path d="M5068 3795 c-62 -35 -38 -127 35 -133 44 -4 77 25 77 67 0 58 -61 94
-112 66z"/>
<path d="M583 3718 c-32 -41 -18 -89 30 -109 24 -10 38 -10 71 0 91 29 149 10
118 -39 -16 -26 -15 -30 8 -30 44 0 54 77 14 109 -32 25 -66 26 -124 6 -57
-20 -77 -19 -90 6 -9 16 -8 24 5 39 15 16 15 18 0 24 -22 8 -21 8 -32 -6z"/>
<path d="M997 3672 c-22 -24 -21 -55 1 -75 37 -33 92 -11 92 37 0 48 -62 73
-93 38z"/>
<path d="M4410 3670 c-24 -24 -25 -38 -4 -68 29 -41 94 -19 94 33 0 51 -54 71
-90 35z"/>
<path d="M265 3597 c-56 -47 -27 -127 45 -127 46 0 70 25 70 72 0 64 -67 97
-115 55z"/>
<path d="M5143 3610 c-72 -29 -47 -140 32 -140 77 0 103 100 35 135 -33 17
-36 17 -67 5z"/>
<path d="M936 3534 c-33 -33 -7 -94 41 -94 25 0 53 30 53 57 0 44 -63 69 -94
37z"/>
<path d="M4472 3538 c-23 -28 -18 -74 9 -88 52 -28 106 28 74 76 -17 26 -65
33 -83 12z"/>
<path d="M512 3482 c-19 -19 -39 -78 -29 -88 2 -2 64 -21 138 -42 127 -36 148
-38 149 -10 0 5 -27 15 -60 25 -33 9 -57 20 -53 24 4 4 35 9 68 11 49 2 60 6
63 22 4 18 -1 19 -72 13 -61 -4 -76 -3 -76 9 0 17 -36 40 -77 49 -24 5 -36 2
-51 -13z m92 -54 c5 -9 8 -20 4 -23 -8 -8 -88 13 -88 24 0 27 66 26 84 -1z"/>
<path d="M4875 3441 c-119 -34 -157 -69 -136 -124 16 -41 50 -53 116 -38 30 7
55 18 55 24 0 32 -14 57 -30 57 -13 0 -17 -6 -13 -19 4 -16 -2 -21 -31 -26
-64 -13 -90 19 -42 50 43 28 163 57 186 45 24 -13 25 -23 6 -42 -10 -10 -11
-19 -4 -32 9 -17 11 -17 29 0 19 17 26 69 11 90 -10 16 -48 34 -69 33 -10 0
-45 -8 -78 -18z"/>
<path d="M217 3409 c-46 -27 -41 -105 9 -128 35 -16 48 -14 78 10 51 40 23
129 -41 129 -16 0 -36 -5 -46 -11z"/>
<path d="M5171 3394 c-12 -15 -21 -38 -21 -51 0 -32 42 -73 75 -73 35 0 75 42
75 78 0 65 -89 97 -129 46z"/>
<path d="M887 3392 c-33 -37 -11 -92 37 -92 26 0 56 29 56 53 0 23 -35 57 -58
57 -11 0 -26 -8 -35 -18z"/>
<path d="M4526 3394 c-19 -18 -21 -65 -4 -82 20 -20 65 -14 82 10 21 30 20 44
-4 68 -24 24 -53 26 -74 4z"/>
<path d="M435 3224 c-3 -26 -3 -50 2 -54 4 -4 62 -17 128 -29 66 -12 127 -24
136 -27 13 -3 18 5 23 33 4 21 9 46 12 56 4 12 0 17 -15 17 -14 0 -21 -9 -26
-31 -7 -30 -8 -30 -48 -24 -56 10 -59 12 -52 47 6 25 4 29 -11 26 -10 -2 -21
-14 -24 -28 -6 -25 -13 -27 -68 -14 -20 4 -22 9 -16 39 5 30 4 35 -14 35 -16
0 -21 -9 -27 -46z"/>
<path d="M846 3244 c-25 -24 -20 -61 10 -81 24 -15 29 -15 53 -2 49 27 35 99
-19 99 -16 0 -36 -7 -44 -16z"/>
<path d="M4555 3236 c-13 -19 -13 -28 -4 -50 16 -33 44 -42 74 -22 27 18 34
63 13 84 -21 21 -66 14 -83 -12z"/>
<path d="M170 3200 c-49 -49 -3 -139 65 -126 38 8 53 23 61 61 13 68 -77 114
-126 65z"/>
<path d="M5210 3200 c-30 -30 -27 -83 6 -109 30 -24 43 -26 78 -10 33 15 50
57 37 92 -19 48 -85 63 -121 27z"/>
<path d="M4907 3170 c-65 -10 -120 -20 -123 -22 -2 -3 -1 -26 2 -51 5 -37 11
-47 26 -47 16 0 18 5 13 34 l-7 33 47 6 c56 8 65 4 65 -29 0 -37 24 -25 28 13
3 27 7 31 40 35 40 5 52 -4 52 -40 0 -17 5 -23 18 -20 14 3 16 12 13 48 -5 70
9 67 -174 40z"/>
<path d="M815 3086 c-33 -50 20 -104 70 -72 27 18 34 63 13 84 -21 21 -66 14
-83 -12z"/>
<path d="M4586 3094 c-22 -21 -20 -50 4 -74 24 -24 38 -25 68 -4 24 17 30 62
10 82 -17 17 -64 15 -82 -4z"/>
<path d="M410 3022 c0 -15 19 -23 103 -43 l102 -24 -45 -7 c-25 -3 -73 -7
-107 -7 -56 -1 -63 -3 -63 -21 0 -13 7 -20 20 -20 26 0 204 18 248 26 34 5 44
29 15 38 -10 2 -70 21 -134 40 -133 41 -139 42 -139 18z"/>
<path d="M150 3000 c-47 -47 1 -142 63 -126 88 22 83 136 -6 144 -26 2 -42 -3
-57 -18z"/>
<path d="M5230 3000 c-30 -30 -27 -83 6 -109 30 -24 43 -26 77 -10 25 11 47
47 47 75 0 8 -11 26 -25 39 -30 31 -77 33 -105 5z"/>
<path d="M802 2948 c-21 -21 -14 -66 12 -83 53 -35 115 34 70 79 -18 19 -65
21 -82 4z"/>
<path d="M4602 2948 c-21 -21 -14 -66 12 -83 50 -33 104 20 72 70 -18 27 -63
34 -84 13z"/>
<path d="M4943 2953 c-124 -3 -133 -5 -133 -23 0 -17 9 -19 68 -22 l67 -3 -65
-26 c-50 -21 -66 -32 -68 -49 -3 -16 0 -21 10 -17 7 3 37 15 66 28 51 21 55
22 82 6 35 -21 79 -22 108 -1 18 12 22 25 22 65 0 34 -4 48 -12 47 -7 -1 -73
-4 -145 -5z m125 -50 c-4 -23 -54 -41 -75 -27 -32 20 -25 33 19 37 24 2 47 4
51 5 5 1 7 -6 5 -15z"/>
<path d="M149 2801 c-17 -13 -23 -29 -23 -56 0 -68 77 -100 122 -52 64 68 -26
167 -99 108z"/>
<path d="M5235 2795 c-14 -13 -25 -36 -25 -50 0 -33 41 -75 73 -75 40 0 77 36
77 75 0 24 -7 39 -26 54 -35 28 -69 26 -99 -4z"/>
<path d="M802 2798 c-24 -30 -13 -83 19 -93 29 -9 55 2 68 31 9 22 9 31 -4 50
-17 26 -65 33 -83 12z"/>
<path d="M4606 2794 c-25 -24 -20 -61 10 -81 24 -15 29 -15 53 -2 49 28 32 99
-24 99 -13 0 -31 -7 -39 -16z"/>
<path d="M400 2748 c0 -21 2 -21 107 -15 58 4 126 7 150 7 32 0 43 4 43 15 0
13 -23 15 -150 15 -147 0 -150 0 -150 -22z"/>
<path d="M4802 2713 c2 -9 14 -20 28 -23 20 -5 25 -12 25 -35 0 -25 -4 -31
-27 -33 -24 -3 -45 -28 -34 -40 3 -2 67 4 141 14 124 16 180 33 164 48 -6 7
-274 86 -290 86 -6 0 -9 -8 -7 -17z m160 -54 c81 -17 81 -29 0 -29 -65 0 -72
2 -72 20 0 23 2 24 72 9z"/>
<path d="M804 2635 c-34 -52 31 -111 76 -70 22 20 26 65 8 83 -21 21 -66 14
-84 -13z"/>
<path d="M4597 2642 c-10 -10 -17 -28 -17 -40 0 -22 34 -52 61 -52 22 0 49 32
49 58 0 47 -61 69 -93 34z"/>
<path d="M172 2604 c-35 -24 -45 -59 -27 -93 15 -31 33 -41 71 -41 61 0 88 90
38 129 -32 25 -52 26 -82 5z"/>
<path d="M548 2601 c-70 -9 -130 -20 -134 -24 -3 -3 -4 -12 -1 -20 5 -14 21
-13 152 7 33 5 24 -1 -52 -38 -135 -65 -124 -86 35 -67 170 21 172 22 172 43
0 17 -5 18 -52 13 -29 -4 -75 -11 -102 -16 -27 -5 -50 -8 -52 -7 -1 2 42 23
96 48 71 32 100 50 100 63 0 20 8 20 -162 -2z"/>
<path d="M5225 2595 c-49 -48 -16 -125 52 -125 37 0 73 38 73 77 0 32 -42 73
-75 73 -14 0 -37 -11 -50 -25z"/>
<path d="M833 2498 c-25 -30 -15 -83 18 -93 48 -15 88 31 65 76 -13 27 -66 38
-83 17z"/>
<path d="M4572 2498 c-20 -20 -14 -65 10 -82 30 -21 44 -20 68 4 24 24 26 53
4 74 -18 19 -65 21 -82 4z"/>
<path d="M4776 2464 c-4 -9 -5 -18 -4 -19 6 -4 256 -45 276 -45 13 0 22 6 22
15 0 8 -1 15 -3 15 -2 0 -66 11 -143 25 -76 14 -140 25 -140 25 -1 0 -5 -7 -8
-16z"/>
<path d="M203 2408 c-30 -15 -46 -58 -34 -91 12 -30 39 -47 75 -47 63 0 90 89
40 129 -29 23 -48 25 -81 9z"/>
<path d="M5195 2395 c-49 -48 -16 -125 52 -125 37 0 73 38 73 77 0 32 -42 73
-75 73 -14 0 -37 -11 -50 -25z"/>
<path d="M879 2356 c-35 -17 -38 -69 -6 -91 45 -29 99 12 82 63 -8 29 -47 43
-76 28z"/>
<path d="M580 2331 c-87 -20 -116 -31 -118 -44 -4 -22 -3 -22 128 9 120 28
143 27 138 -8 -3 -20 -17 -26 -125 -51 -86 -20 -123 -33 -123 -43 0 -19 22
-18 147 11 127 30 149 46 139 99 -7 34 -30 57 -58 55 -7 0 -65 -13 -128 -28z"/>
<path d="M4542 2348 c-21 -21 -14 -66 12 -83 49 -32 103 23 70 72 -16 25 -62
31 -82 11z"/>
<path d="M4741 2302 c-14 -34 -2 -76 28 -91 32 -17 68 -13 123 15 42 21 55 24
74 15 25 -11 32 -45 13 -57 -8 -4 -7 -9 2 -15 22 -13 26 -11 39 21 18 42 1 75
-44 90 -32 10 -42 9 -93 -15 -84 -40 -127 -19 -98 48 5 13 2 17 -13 17 -12 0
-24 -11 -31 -28z"/>
<path d="M236 2199 c-53 -41 -18 -129 51 -129 32 0 73 42 73 75 0 33 -41 75
-73 75 -13 0 -36 -9 -51 -21z"/>
<path d="M903 2194 c-15 -24 -15 -29 -2 -53 28 -49 99 -32 99 24 0 55 -67 75
-97 29z"/>
<path d="M4493 2194 c-15 -24 -15 -29 -2 -53 28 -49 99 -32 99 24 0 55 -67 75
-97 29z"/>
<path d="M5152 2200 c-45 -42 -15 -130 44 -130 36 0 54 11 70 42 38 74 -54
144 -114 88z"/>
<path d="M967 2062 c-33 -37 -11 -92 37 -92 48 0 73 62 38 93 -24 22 -55 21
-75 -1z"/>
<path d="M4446 2067 c-11 -8 -18 -26 -18 -42 0 -52 67 -75 96 -33 21 30 20 44
-4 68 -23 23 -49 26 -74 7z"/>
<path d="M4774 2030 c-8 -30 -15 -36 -44 -40 l-34 -5 28 -18 c15 -10 26 -24
23 -30 -2 -7 -8 -23 -12 -36 l-7 -23 31 23 c29 21 32 21 49 6 27 -25 34 -21
27 13 -5 24 -2 34 17 50 l23 19 -31 1 c-27 0 -33 5 -46 37 l-14 38 -10 -35z"/>
<path d="M1422 1978 c-2 -40 0 -89 3 -110 13 -73 25 -37 25 72 0 81 -3 110
-12 110 -9 0 -14 -23 -16 -72z"/>
<path d="M1502 1943 c2 -72 7 -108 15 -110 9 -3 13 20 15 83 l3 88 53 -81 c48
-73 80 -106 83 -85 0 4 2 53 3 110 2 78 0 102 -10 102 -10 0 -14 -23 -16 -82
l-3 -83 -55 82 c-34 51 -62 83 -73 83 -16 0 -17 -10 -15 -107z"/>
<path d="M1752 2030 c-27 -26 -36 -60 -29 -112 7 -51 33 -78 83 -85 45 -6 94
24 94 58 0 26 -15 24 -34 -6 -12 -18 -25 -25 -50 -25 -46 0 -66 26 -66 83 0
56 25 87 70 87 19 0 34 -7 42 -20 13 -21 38 -27 38 -10 0 6 -9 19 -20 30 -28
28 -98 27 -128 0z"/>
<path d="M1952 1943 c2 -64 7 -108 13 -108 6 0 11 44 13 108 2 92 0 107 -13
107 -13 0 -15 -15 -13 -107z"/>
<path d="M2032 1943 c2 -64 7 -108 13 -108 6 0 11 19 13 41 l3 42 51 4 c57 6
78 24 78 69 0 45 -23 59 -96 59 l-65 0 3 -107z m114 79 c17 -11 22 -35 12 -54
-6 -13 -21 -18 -53 -18 l-45 0 0 40 c0 40 0 40 38 40 20 0 42 -4 48 -8z"/>
<path d="M2240 1941 c0 -67 4 -111 10 -111 6 0 10 34 11 80 1 44 1 92 2 107 1
15 -4 28 -11 31 -9 3 -12 -25 -12 -107z"/>
<path d="M2300 2040 c0 -5 16 -10 35 -10 l34 0 3 -97 c2 -66 7 -98 16 -101 9
-3 12 21 12 97 l0 101 35 0 c19 0 35 5 35 10 0 6 -35 10 -85 10 -50 0 -85 -4
-85 -10z"/>
<path d="M2570 2045 c0 -2 18 -51 40 -108 24 -62 46 -104 54 -104 8 0 29 38
50 91 51 132 50 126 34 126 -8 0 -28 -38 -49 -96 l-35 -95 -33 95 c-21 59 -39
96 -47 96 -8 0 -14 -2 -14 -5z"/>
<path d="M2800 1939 c0 -71 4 -108 10 -104 6 3 10 52 10 111 0 63 -4 104 -10
104 -6 0 -10 -44 -10 -111z"/>
<path d="M2860 2040 c0 -5 16 -10 35 -10 l34 0 3 -97 c4 -127 22 -125 26 2 l3
95 34 0 c19 0 35 5 35 10 0 6 -35 10 -85 10 -50 0 -85 -4 -85 -10z"/>
<path d="M3097 2043 c-9 -15 -77 -195 -77 -204 0 -22 22 -6 36 26 13 33 17 35
59 35 42 0 46 -2 59 -35 15 -34 36 -48 36 -22 0 6 -18 55 -39 107 -36 85 -60
116 -74 93z m47 -100 c7 -21 4 -23 -28 -23 -42 0 -41 0 -19 59 l17 45 12 -30
c6 -16 15 -39 18 -51z"/>
<path d="M3330 1946 c0 -129 18 -153 22 -30 l3 87 58 -87 c33 -48 64 -85 70
-83 8 2 13 41 15 110 2 90 0 107 -12 107 -12 0 -16 -17 -18 -82 l-3 -82 -54
82 c-29 45 -60 82 -67 82 -11 0 -14 -23 -14 -104z"/>
<path d="M3566 2019 c-46 -54 -32 -142 29 -174 71 -39 145 8 145 92 0 79 -30
112 -102 113 -40 0 -50 -4 -72 -31z m114 1 c23 -12 44 -73 35 -102 -13 -40
-36 -58 -76 -58 -47 0 -69 27 -69 87 0 68 53 103 110 73z"/>
<path d="M3804 1943 c25 -66 47 -108 56 -108 17 0 103 208 88 214 -14 5 -23
-12 -55 -101 -15 -43 -30 -78 -33 -78 -3 0 -19 39 -35 87 -20 59 -36 89 -47
91 -13 3 -9 -17 26 -105z"/>
<path d="M3985 1950 c-40 -107 -41 -113 -27 -118 6 -2 15 13 22 32 11 35 13
36 60 36 47 0 49 -1 60 -35 7 -20 18 -35 27 -35 10 0 13 6 9 18 -4 9 -23 59
-43 110 -48 123 -59 122 -108 -8z m70 34 c22 -53 19 -64 -15 -64 -16 0 -30 5
-30 11 0 15 22 89 26 89 2 0 11 -16 19 -36z"/>
<path d="M665 2011 c-6 -28 -10 -31 -43 -31 l-37 -1 27 -24 c24 -21 27 -27 18
-51 -14 -35 -5 -42 21 -18 20 18 22 18 50 1 l30 -17 -7 34 c-5 30 -2 37 22 53
l28 18 -39 5 c-30 4 -41 10 -43 25 -7 35 -20 38 -27 6z"/>
<path d="M296 2009 c-53 -41 -23 -129 44 -129 33 0 80 38 80 64 0 28 -22 64
-47 75 -34 16 -47 14 -77 -10z"/>
<path d="M5096 2009 c-53 -41 -23 -129 44 -129 33 0 80 38 80 64 0 28 -22 64
-47 75 -34 16 -47 14 -77 -10z"/>
<path d="M1032 1928 c-37 -37 12 -113 57 -88 35 18 45 48 26 76 -17 26 -62 33
-83 12z"/>
<path d="M4370 1921 c-16 -31 -12 -59 12 -75 30 -21 44 -20 68 4 24 24 26 53
4 74 -22 23 -71 20 -84 -3z"/>
<path d="M371 1823 c-11 -10 -24 -32 -27 -50 -13 -65 74 -109 124 -63 67 63
-27 171 -97 113z"/>
<path d="M5015 1815 c-14 -13 -25 -36 -25 -50 0 -35 42 -75 78 -75 65 0 97 89
46 129 -35 28 -69 26 -99 -4z"/>
<path d="M4320 1812 c-43 -13 -53 -73 -16 -97 27 -18 72 -7 83 21 15 40 -28
89 -67 76z"/>
<path d="M1104 1785 c-20 -30 -11 -58 22 -74 22 -9 31 -9 50 4 26 17 33 62 12
83 -21 21 -66 14 -84 -13z"/>
<path d="M891 1790 c-12 -7 -10 -14 7 -44 24 -41 36 -35 -121 -70 -60 -13
-111 -27 -115 -30 -3 -4 0 -12 6 -18 9 -9 46 -4 154 21 79 18 144 35 146 36 2
2 -53 102 -62 112 -1 1 -8 -2 -15 -7z"/>
<path d="M4511 1735 c-36 -64 -35 -61 -16 -69 10 -3 20 6 31 27 9 18 18 34 21
36 2 3 46 -40 97 -95 77 -80 95 -96 101 -81 5 13 -16 42 -84 116 -126 137
-113 131 -150 66z"/>
<path d="M1197 1672 c-22 -24 -21 -55 1 -75 36 -33 92 -8 92 41 0 47 -61 69
-93 34z"/>
<path d="M4207 1672 c-22 -25 -21 -48 3 -72 24 -24 53 -26 74 -4 19 18 21 65
4 82 -18 18 -63 14 -81 -6z"/>
<path d="M473 1650 c-70 -28 -45 -140 31 -140 68 0 99 78 51 125 -25 26 -45
30 -82 15z"/>
<path d="M4944 1648 c-22 -10 -44 -47 -44 -74 0 -26 47 -64 80 -64 67 0 97 88
44 129 -29 23 -48 25 -80 9z"/>
<path d="M1302 1564 c-24 -17 -30 -62 -10 -82 17 -17 64 -15 82 4 45 45 -20
115 -72 78z"/>
<path d="M4122 1565 c-24 -18 -30 -63 -10 -83 21 -21 66 -14 83 12 12 18 13
30 6 50 -6 14 -15 26 -20 26 -5 0 -15 2 -23 5 -7 3 -23 -2 -36 -10z"/>
<path d="M4380 1540 c-28 -28 -25 -62 7 -94 23 -24 28 -25 36 -11 6 12 3 23
-13 40 -22 24 -20 45 4 45 26 0 64 -41 99 -107 60 -115 59 -114 96 -59 21 30
30 53 26 64 -6 15 -10 13 -32 -13 -14 -16 -27 -25 -29 -19 -2 5 -21 39 -42 74
-54 92 -110 122 -152 80z"/>
<path d="M988 1398 c-93 -79 -106 -94 -97 -110 16 -30 71 -59 99 -52 64 15
170 122 170 171 0 21 -44 83 -59 83 -4 0 -55 -41 -113 -92z m130 15 c4 -25
-47 -86 -100 -119 -43 -27 -61 -30 -77 -10 -9 11 5 28 71 84 46 39 88 70 93
68 6 -1 11 -12 13 -23z"/>
<path d="M556 1461 c-42 -47 -8 -124 54 -124 62 0 97 77 55 123 -24 26 -85 27
-109 1z"/>
<path d="M4820 1460 c-36 -36 -21 -102 27 -121 35 -13 77 4 92 37 16 35 14 48
-10 78 -26 33 -79 36 -109 6z"/>
<path d="M1412 1463 c-7 -3 -18 -16 -23 -30 -13 -36 12 -73 49 -73 35 0 52 17
52 51 0 40 -41 67 -78 52z"/>
<path d="M4010 1450 c-38 -38 -15 -90 40 -90 50 0 69 66 28 94 -30 21 -44 20
-68 -4z"/>
<path d="M1517 1352 c-33 -37 -11 -92 37 -92 26 0 56 29 56 53 0 23 -35 57
-58 57 -11 0 -26 -8 -35 -18z"/>
<path d="M3896 1354 c-19 -18 -21 -65 -4 -82 20 -20 65 -14 82 10 21 30 20 44
-4 68 -24 24 -53 26 -74 4z"/>
<path d="M4220 1350 c-27 -27 -25 -62 6 -100 49 -58 108 -70 124 -24 5 14 13
1 29 -49 19 -56 25 -66 37 -56 20 17 17 37 -15 104 -31 64 -81 122 -119 136
-33 13 -39 12 -62 -11z m81 -49 c31 -31 38 -61 15 -61 -23 0 -76 50 -76 71 0
28 27 23 61 -10z"/>
<path d="M675 1295 c-14 -13 -25 -36 -25 -50 0 -35 42 -75 78 -75 17 0 37 9
50 23 67 72 -34 172 -103 102z"/>
<path d="M4705 1295 c-14 -13 -25 -36 -25 -50 0 -33 42 -75 75 -75 33 0 75 42
75 75 0 33 -42 75 -75 75 -14 0 -37 -11 -50 -25z"/>
<path d="M1182 1187 c-56 -56 -102 -105 -102 -109 0 -3 18 -21 41 -39 30 -23
43 -29 52 -20 8 8 5 17 -13 36 l-24 25 34 35 34 35 21 -20 c16 -15 24 -17 33
-8 9 9 7 17 -10 35 l-22 23 29 30 29 30 26 -25 c20 -19 29 -22 38 -13 18 18
16 22 -26 56 l-39 30 -101 -101z"/>
<path d="M1642 1264 c-41 -29 -19 -94 33 -94 52 0 74 65 33 94 -12 9 -27 16
-33 16 -6 0 -21 -7 -33 -16z"/>
<path d="M3782 1273 c-25 -10 -34 -53 -17 -79 18 -28 65 -33 85 -9 40 48 -10
111 -68 88z"/>
<path d="M1767 1182 c-33 -37 -11 -92 37 -92 48 0 73 62 38 93 -24 22 -55 21
-75 -1z"/>
<path d="M3646 1184 c-19 -18 -21 -65 -4 -82 20 -20 65 -14 82 10 21 30 20 44
-4 68 -24 24 -53 26 -74 4z"/>
<path d="M4020 1172 c-25 -20 -19 -46 8 -38 12 3 43 -26 102 -94 73 -85 87
-97 99 -85 12 12 1 29 -80 124 -52 60 -97 110 -100 110 -4 1 -17 -7 -29 -17z"/>
<path d="M829 1159 c-38 -14 -57 -63 -38 -98 41 -72 139 -50 139 32 0 50 -52
84 -101 66z"/>
<path d="M4594 1158 c-22 -10 -44 -47 -44 -72 0 -7 9 -25 21 -40 41 -52 129
-23 129 43 0 54 -58 92 -106 69z"/>
<path d="M1900 1110 c-11 -11 -20 -26 -20 -33 0 -24 31 -57 55 -57 50 0 73 60
37 93 -25 22 -48 21 -72 -3z"/>
<path d="M3510 1110 c-11 -11 -20 -28 -20 -38 0 -24 31 -52 58 -52 47 0 69 61
34 93 -25 22 -48 21 -72 -3z"/>
<path d="M2036 1048 c-21 -29 -20 -51 2 -71 37 -34 92 -11 92 38 0 52 -65 74
-94 33z"/>
<path d="M3370 1050 c-25 -25 -26 -52 -2 -73 37 -34 92 -11 92 38 0 51 -54 71
-90 35z"/>
<path d="M1512 1053 c-27 -11 -44 -63 -37 -113 4 -27 4 -58 0 -69 -9 -28 -42
-37 -65 -16 -18 16 -40 13 -40 -6 0 -19 41 -49 68 -49 57 1 87 49 77 126 -10
82 21 119 67 78 16 -16 18 -15 24 0 14 36 -47 68 -94 49z"/>
<path d="M962 1013 c-7 -3 -19 -18 -28 -35 -13 -25 -13 -35 -3 -59 32 -78 139
-58 139 26 0 56 -54 90 -108 68z"/>
<path d="M2175 996 c-34 -52 36 -114 79 -70 19 18 21 65 4 82 -21 21 -66 14
-83 -12z"/>
<path d="M3226 1004 c-25 -24 -20 -61 10 -81 24 -15 29 -15 53 -2 49 28 32 99
-24 99 -13 0 -31 -7 -39 -16z"/>
<path d="M4435 995 c-14 -13 -25 -36 -25 -50 0 -33 42 -75 75 -75 33 0 75 42
75 75 0 33 -42 75 -75 75 -14 0 -37 -11 -50 -25z"/>
<path d="M3762 984 c-40 -24 -42 -27 -29 -47 7 -12 40 -66 72 -120 32 -54 62
-100 67 -103 6 -4 59 21 87 42 2 2 1 10 -3 19 -5 14 -9 14 -37 -1 -35 -17 -34
-18 -65 40 -16 28 -15 30 7 47 19 14 22 20 12 30 -10 10 -16 10 -25 1 -20 -20
-35 -14 -57 23 l-20 35 29 15 c19 10 27 20 24 30 -8 20 -12 19 -62 -11z"/>
<path d="M2350 983 c-21 -7 -40 -33 -40 -54 0 -40 69 -66 98 -37 20 20 14 65
-10 82 -24 17 -25 17 -48 9z"/>
<path d="M3093 980 c-35 -14 -41 -71 -9 -92 17 -12 61 -9 74 4 20 20 14 65
-10 82 -25 18 -25 18 -55 6z"/>
<path d="M1712 948 c-13 -17 -122 -235 -122 -246 0 -4 20 -18 45 -30 42 -20
46 -21 52 -5 4 9 2 18 -4 20 -5 2 -18 9 -28 17 -16 12 -16 15 4 55 15 29 27
41 37 37 8 -3 20 -9 28 -12 24 -9 27 25 3 37 -12 7 -23 13 -25 14 -7 6 33 75
42 75 6 0 20 -7 30 -15 10 -8 23 -12 27 -9 20 12 7 35 -31 54 -46 24 -45 23
-58 8z"/>
<path d="M2476 944 c-22 -21 -20 -50 4 -74 24 -24 38 -25 68 -4 24 17 30 62
10 82 -17 17 -64 15 -82 -4z"/>
<path d="M2925 936 c-28 -43 12 -93 64 -79 10 2 24 16 30 30 17 36 -8 73 -49
73 -20 0 -35 -8 -45 -24z"/>
<path d="M2627 932 c-21 -23 -21 -41 -1 -70 29 -41 94 -19 94 33 0 50 -60 73
-93 37z"/>
<path d="M2774 925 c-32 -49 23 -104 75 -75 28 15 29 75 2 90 -32 17 -60 11
-77 -15z"/>
<path d="M1106 869 c-53 -41 -23 -129 44 -129 34 0 80 38 80 65 0 29 -29 72
-52 79 -36 9 -43 8 -72 -15z"/>
<path d="M4287 870 c-34 -27 -37 -76 -7 -108 47 -50 139 -5 126 61 -8 40 -23
55 -61 63 -22 4 -38 0 -58 -16z"/>
<path d="M1900 859 c0 -7 7 -17 17 -24 15 -11 12 -23 -31 -129 -25 -65 -44
-121 -41 -127 13 -19 32 -7 45 29 7 20 29 74 47 119 32 76 37 82 59 77 47 -12
26 23 -27 45 -59 24 -69 26 -69 10z"/>
<path d="M3507 858 c-15 -5 -27 -16 -25 -23 2 -8 28 -68 58 -134 62 -136 71
-142 127 -86 39 39 39 57 -3 152 -41 94 -83 118 -157 91z m71 -34 c25 -17 66
-93 76 -140 5 -23 2 -36 -9 -48 -9 -9 -18 -16 -20 -16 -2 0 -24 44 -50 97 -54
114 -53 146 3 107z"/>
<path d="M2125 778 c-12 -36 -75 -259 -75 -266 0 -15 91 -35 103 -23 13 13 0
31 -23 31 -28 0 -33 17 -20 65 11 39 15 43 42 41 40 -1 47 20 9 27 -29 6 -29
7 -19 47 10 39 12 40 46 38 41 -3 55 18 20 30 -51 20 -78 23 -83 10z"/>
<path d="M1283 760 c-45 -18 -57 -81 -23 -118 62 -67 171 27 113 96 -21 25
-60 35 -90 22z"/>
<path d="M4124 747 c-53 -46 -23 -127 46 -127 69 0 99 81 46 127 -15 12 -36
23 -46 23 -10 0 -31 -11 -46 -23z"/>
<path d="M3172 748 c-28 -14 -36 -46 -29 -106 10 -78 27 -124 57 -154 34 -33
62 -36 91 -7 19 19 21 29 16 85 -7 73 -40 158 -71 179 -24 17 -33 18 -64 3z
m52 -43 c30 -31 60 -195 38 -209 -30 -18 -82 93 -82 174 0 52 15 64 44 35z"/>
<path d="M2336 713 c-5 -20 -56 -260 -56 -268 0 -3 9 -5 19 -5 16 0 21 12 31
73 15 96 24 113 27 52 9 -157 28 -175 63 -57 20 70 44 122 35 76 -2 -10 -6
-52 -9 -91 -4 -66 -3 -73 13 -73 17 0 19 14 26 139 4 77 4 145 0 150 -17 29
-34 5 -61 -89 -31 -107 -41 -108 -43 -4 -1 28 -4 66 -7 83 -7 34 -29 42 -38
14z"/>
<path d="M2884 699 c-7 -11 -1 -78 17 -211 10 -67 14 -78 31 -78 17 0 19 5 13
48 -3 26 -8 58 -11 70 -8 38 10 18 41 -47 19 -42 34 -61 47 -61 25 0 22 16
-12 79 -29 53 -30 56 -15 88 18 37 13 84 -12 108 -17 17 -89 20 -99 4z m62
-27 c19 -12 25 -57 10 -78 -19 -25 -27 -15 -33 41 -5 44 0 53 23 37z"/>
<path d="M2637 558 c-3 -78 -3 -146 0 -151 9 -15 86 0 100 19 18 25 17 99 -3
115 -13 11 -13 14 -1 21 20 11 30 71 16 101 -12 26 -35 37 -80 37 l-26 0 -6
-142z m79 76 c8 -30 -1 -53 -21 -60 -23 -9 -26 -2 -19 49 7 49 29 56 40 11z
m-18 -103 c14 -9 19 -61 8 -80 -4 -6 -14 -11 -22 -11 -10 0 -14 13 -14 50 0
50 4 57 28 41z"/>
<path d="M1435 635 c-14 -13 -25 -36 -25 -50 0 -33 42 -75 75 -75 35 0 75 42
75 78 0 36 -37 72 -74 72 -15 0 -37 -10 -51 -25z"/>
<path d="M3943 634 c-20 -20 -24 -31 -19 -57 8 -40 23 -55 61 -63 44 -8 85 26
85 72 0 70 -76 99 -127 48z"/>
<path d="M1633 560 c-45 -18 -55 -72 -22 -114 41 -52 129 -22 129 45 0 52 -57
90 -107 69z"/>
<path d="M3783 558 c-30 -15 -46 -58 -34 -91 12 -30 39 -47 75 -47 63 0 90 89
40 129 -29 23 -48 25 -81 9z"/>
<path d="M1807 470 c-34 -27 -37 -80 -7 -110 48 -48 139 -2 126 63 -8 40 -23
55 -61 63 -22 4 -38 0 -58 -16z"/>
<path d="M3586 469 c-50 -40 -23 -129 40 -129 60 0 95 50 73 103 -20 47 -71
59 -113 26z"/>
<path d="M2013 420 c-26 -11 -43 -40 -43 -74 0 -63 89 -90 129 -40 12 15 21
33 21 40 0 26 -23 62 -47 73 -28 13 -30 13 -60 1z"/>
<path d="M3420 423 c-53 -19 -70 -98 -28 -127 35 -25 83 -20 107 10 27 34 26
57 -1 88 -25 26 -54 37 -78 29z"/>
<path d="M2194 357 c-52 -45 -25 -127 41 -127 74 0 105 80 51 127 -15 12 -36
23 -46 23 -10 0 -31 -11 -46 -23z"/>
<path d="M3213 370 c-72 -30 -45 -140 34 -140 36 0 73 38 73 75 0 49 -59 85
-107 65z"/>
<path d="M2394 327 c-54 -47 -25 -127 46 -127 72 0 101 80 46 127 -34 29 -58
29 -92 0z"/>
<path d="M3015 339 c-49 -28 -58 -70 -24 -113 41 -52 129 -23 129 43 0 55 -60
95 -105 70z"/>
<path d="M2596 309 c-34 -27 -36 -77 -3 -107 31 -30 72 -28 104 4 20 20 24 31
19 57 -12 62 -70 85 -120 46z"/>
<path d="M2795 305 c-14 -13 -25 -36 -25 -50 0 -33 42 -75 75 -75 33 0 75 42
75 75 0 33 -42 75 -75 75 -14 0 -37 -11 -50 -25z"/>
</g>
</svg>
