<?xml version="1.0" standalone="no"?>
<!DOCTYPE svg PUBLIC "-//W3C//DTD SVG 20010904//EN"
 "http://www.w3.org/TR/2001/REC-SVG-20010904/DTD/svg10.dtd">
<svg version="1.0" xmlns="http://www.w3.org/2000/svg"
 width="1024.000000pt" height="1024.000000pt" viewBox="0 0 1024.000000 1024.000000"
 preserveAspectRatio="xMidYMid meet">

<g transform="translate(0.000000,1024.000000) scale(0.100000,-0.100000)"
fill="#000000" stroke="none">
<path d="M4715 10199 c-560 -56 -1032 -168 -1510 -356 -198 -78 -593 -275
-775 -388 -346 -215 -611 -426 -916 -730 -431 -429 -737 -851 -989 -1360 -119
-240 -169 -360 -245 -582 -193 -563 -274 -1058 -275 -1673 0 -534 57 -929 211
-1447 468 -1576 1665 -2820 3236 -3361 552 -190 1048 -272 1647 -272 507 0
832 40 1296 160 544 140 1072 375 1540 685 638 422 1188 989 1563 1612 389
646 642 1409 719 2163 24 239 24 766 0 1000 -45 433 -115 757 -247 1143 -250
730 -665 1389 -1240 1966 -232 233 -469 424 -805 645 -208 138 -288 184 -514
295 -517 255 -1050 408 -1691 487 -157 19 -855 28 -1005 13z m356 -125 l74 -7
85 -223 c47 -123 88 -224 91 -224 4 0 48 97 100 216 51 118 96 217 100 220 4
2 57 1 118 -3 117 -6 145 -21 74 -39 -32 -8 -39 -15 -49 -49 -6 -22 -14 -137
-18 -256 -6 -207 -6 -217 14 -242 11 -14 30 -27 43 -29 12 -2 23 -11 25 -22 4
-18 -1 -19 -79 -13 -46 4 -123 7 -171 7 -72 0 -88 3 -88 15 0 16 5 19 52 29
21 5 30 15 37 43 15 53 26 392 12 373 -6 -8 -54 -115 -107 -237 -98 -224 -113
-246 -142 -210 -5 6 -49 119 -98 250 l-89 238 -8 -197 c-8 -186 -8 -198 11
-223 10 -14 29 -27 41 -29 14 -2 21 -11 21 -24 0 -20 -4 -21 -67 -15 -38 4
-90 7 -116 7 -41 0 -48 3 -45 17 2 11 15 20 33 23 54 9 63 45 71 305 7 253 8
248 -53 264 -15 4 -29 15 -31 24 -4 19 30 22 159 11z m-662 -91 c27 -103 29
-122 13 -128 -9 -3 -20 1 -26 12 -5 10 -23 30 -39 46 -25 23 -38 27 -86 27
-56 0 -127 -13 -139 -24 -3 -4 5 -61 17 -127 l23 -120 32 7 c42 8 76 42 76 74
0 30 24 69 36 57 7 -7 53 -217 54 -244 0 -25 -29 -12 -49 21 -12 19 -28 37
-37 40 -20 8 -89 8 -96 0 -3 -3 5 -55 18 -117 27 -124 39 -142 92 -132 27 5
32 3 32 -13 0 -16 -21 -22 -152 -46 -84 -16 -159 -31 -165 -33 -29 -11 -10 27
22 46 29 17 35 26 35 55 0 58 -90 470 -107 489 -9 10 -30 17 -50 17 -47 0 -44
27 5 36 20 4 132 26 247 49 116 24 215 43 222 44 7 1 17 -16 22 -36z m1894
-65 c3 -13 24 -156 48 -318 l43 -295 33 -32 c18 -17 33 -37 33 -43 0 -13 4
-14 -177 30 -121 29 -143 38 -143 54 0 15 5 17 27 13 47 -9 63 7 63 63 0 27
-4 59 -9 72 -9 24 -10 24 -188 65 -17 4 -28 -5 -52 -38 -41 -56 -42 -97 -1
-112 35 -13 44 -53 10 -44 -11 3 -63 16 -115 28 -73 18 -95 27 -93 39 2 8 16
16 33 18 17 2 44 14 61 27 17 13 109 130 204 259 137 187 177 236 195 236 15
0 24 -7 28 -22z m-2720 -186 c64 -28 132 -95 163 -158 90 -185 -7 -394 -221
-476 -91 -35 -210 -33 -287 5 -68 33 -121 90 -156 166 -39 82 -38 194 1 273
84 170 332 264 500 190z m3396 -12 c21 -10 52 -34 68 -53 27 -31 33 -33 45
-21 19 19 52 7 43 -15 -4 -9 -18 -46 -32 -82 -20 -56 -28 -66 -44 -62 -15 4
-19 14 -19 50 0 99 -90 179 -170 151 -34 -11 -50 -35 -50 -73 0 -39 15 -62 96
-146 41 -42 81 -93 89 -113 44 -105 -13 -231 -121 -266 -81 -27 -220 19 -271
88 -15 20 -29 39 -31 42 -2 3 -10 -3 -17 -13 -15 -21 -52 -18 -47 4 2 8 17 51
35 97 40 103 59 107 68 12 4 -36 11 -76 17 -90 33 -81 149 -118 206 -65 20 19
26 33 26 67 0 50 -13 72 -86 148 -80 84 -104 125 -104 178 0 49 28 118 60 147
52 47 163 55 239 15z m574 -276 c27 -14 59 -42 75 -63 22 -33 31 -38 53 -34
15 3 30 0 33 -6 7 -10 -56 -145 -73 -155 -14 -9 -33 21 -27 42 10 30 -13 114
-37 140 -53 57 -114 67 -152 26 -42 -45 -31 -89 50 -194 24 -30 53 -75 65 -99
43 -87 20 -190 -56 -248 -50 -37 -150 -45 -215 -16 -60 27 -106 68 -130 115
-20 38 -21 39 -39 23 -18 -16 -50 -15 -50 2 0 21 89 168 101 168 10 0 14 -15
15 -55 1 -74 11 -121 32 -145 62 -73 132 -86 184 -35 27 27 30 36 26 75 -4 30
-18 62 -46 102 -79 111 -95 144 -100 199 -4 44 0 61 21 97 57 97 155 119 270
61z m-5068 -151 c-10 -36 -8 -126 6 -288 12 -144 23 -171 99 -257 44 -51 66
-58 104 -33 20 13 25 13 35 2 9 -11 -7 -27 -82 -80 -50 -36 -112 -81 -137
-101 -34 -26 -47 -32 -58 -24 -10 9 -8 16 13 38 14 14 25 35 25 47 0 21 -68
131 -96 153 -8 8 -92 49 -187 92 -147 67 -177 78 -208 73 -43 -7 -64 12 -34
29 10 6 68 48 129 93 119 88 157 95 104 21 -10 -13 -10 -23 -2 -35 10 -16 227
-132 248 -133 13 0 -2 181 -20 240 -16 53 -39 69 -75 50 -30 -17 -51 4 -24 24
11 8 49 37 85 64 36 28 69 51 74 51 4 1 5 -11 1 -26z m3135 -58 c1115 -137
2080 -681 2796 -1576 88 -110 259 -364 333 -496 461 -816 624 -1764 465 -2706
-138 -820 -541 -1614 -1118 -2206 -326 -334 -719 -616 -1146 -823 -318 -154
-754 -298 -1080 -357 -497 -90 -1034 -90 -1510 0 -367 70 -778 210 -1135 387
-399 198 -700 413 -1044 747 -291 282 -554 655 -766 1086 -218 443 -351 891
-411 1389 -25 201 -25 716 -1 910 40 321 97 576 185 840 271 806 778 1494
1502 2036 591 443 1326 715 2120 783 162 14 652 6 810 -14z m2554 -200 c18
-14 16 -24 -64 -326 l-84 -312 22 -38 c13 -23 18 -40 12 -44 -12 -8 -13 -7
-130 80 -53 38 -107 77 -120 87 -19 12 -22 19 -13 28 8 9 19 9 47 -1 44 -16
52 -10 77 63 18 53 18 53 -4 77 -12 13 -50 43 -84 68 -70 50 -83 50 -139 1
-40 -35 -42 -48 -12 -88 16 -22 19 -33 11 -41 -14 -14 -188 115 -188 139 0 10
6 15 15 13 76 -20 101 -9 410 177 118 72 217 130 220 131 3 0 14 -6 24 -14z
m-6245 -309 c19 -20 22 -29 13 -38 -9 -9 -20 -8 -47 5 -69 33 -150 12 -190
-49 l-16 -25 133 -128 c230 -220 243 -231 270 -231 13 0 33 7 44 15 23 18 44
19 44 3 0 -21 -231 -247 -246 -241 -11 4 -10 11 6 33 38 54 32 63 -162 252
-100 98 -187 178 -194 178 -7 0 -29 -14 -48 -31 -48 -41 -56 -86 -27 -153 17
-41 19 -53 8 -63 -10 -11 -24 -1 -76 51 l-64 65 63 68 c35 37 134 141 219 230
l155 161 46 -38 c25 -21 56 -50 69 -64z m6761 -199 c91 -39 176 -134 200 -225
10 -38 13 -41 31 -31 24 12 49 5 49 -13 0 -8 -31 -44 -68 -81 -54 -54 -71 -65
-80 -55 -8 10 -5 28 9 71 24 70 17 122 -21 176 -58 80 -145 92 -258 36 -117
-59 -222 -194 -222 -287 0 -52 16 -87 57 -130 62 -63 136 -73 223 -28 30 16
40 17 49 7 15 -19 -143 -177 -161 -159 -9 9 -9 17 0 37 15 33 15 35 -1 35 -35
0 -140 65 -186 116 -125 137 -121 326 11 450 87 82 148 106 258 100 41 -2 91
-11 110 -19z m-7404 -301 c3 -8 0 -24 -6 -36 -25 -46 -6 -66 202 -220 213
-158 218 -160 263 -119 13 11 25 15 34 10 10 -6 -11 -41 -85 -140 -93 -123
-136 -163 -119 -108 18 59 17 68 -6 93 -39 42 -385 294 -404 294 -9 0 -30 -10
-47 -21 -61 -44 -45 -1 47 121 52 69 95 128 95 133 0 13 20 8 26 -7z m7931
-303 c44 -71 83 -134 88 -142 4 -8 2 -17 -6 -22 -10 -6 -20 0 -35 18 -18 22
-25 25 -56 19 -39 -7 -192 -101 -186 -114 16 -39 143 -232 152 -232 21 0 186
113 192 132 3 10 -1 32 -10 49 -13 27 -13 31 0 36 8 3 16 4 18 2 1 -2 25 -40
52 -84 28 -44 67 -106 88 -138 32 -49 35 -58 20 -64 -10 -4 -20 0 -26 10 -17
31 -45 39 -81 24 -53 -23 -401 -246 -416 -267 -10 -15 -11 -26 -2 -52 8 -21 8
-35 1 -42 -12 -12 -2 -25 -104 138 -65 104 -84 141 -74 147 8 5 22 -2 40 -21
25 -27 29 -29 60 -18 18 6 70 34 115 61 l81 50 -50 81 c-28 45 -64 100 -80
123 l-29 42 -97 -63 c-92 -60 -97 -64 -96 -97 0 -19 4 -41 8 -50 4 -10 2 -18
-6 -22 -9 -3 -43 41 -101 133 -48 75 -87 142 -87 149 0 19 25 12 48 -14 17
-20 28 -24 50 -19 15 4 118 63 230 132 212 132 227 146 204 197 -7 16 -7 26 1
34 6 6 12 11 13 11 1 0 37 -57 81 -127z m-8128 -202 c8 -5 11 -16 8 -25 -6
-14 -15 -16 -51 -11 -55 9 -104 -7 -140 -43 -52 -55 -52 -124 0 -154 40 -24
84 -11 162 47 118 86 175 104 254 81 57 -16 109 -61 127 -109 19 -49 13 -128
-13 -182 -27 -56 -87 -118 -130 -135 -28 -10 -28 -11 -11 -30 17 -18 15 -50
-3 -50 -19 0 -173 103 -169 113 2 8 33 12 90 12 95 0 122 12 165 75 32 48 29
94 -8 132 -28 28 -35 30 -81 26 -37 -4 -64 -15 -104 -44 -130 -93 -179 -108
-256 -83 -49 17 -108 76 -120 123 -20 76 29 195 102 243 40 26 47 37 29 48 -7
4 -7 13 0 26 11 19 13 18 73 -16 34 -20 68 -39 76 -44z m8614 -683 c40 -106
54 -155 47 -162 -8 -8 -18 -1 -36 22 -17 21 -34 32 -51 32 -32 0 -281 -93
-343 -127 -104 -59 -126 -109 -91 -204 38 -99 113 -148 201 -128 58 13 268 98
315 127 50 31 57 41 51 74 -3 15 0 31 9 38 15 13 17 11 44 -58 12 -29 30 -75
41 -102 17 -43 18 -51 5 -56 -9 -4 -25 6 -40 24 -22 27 -30 30 -68 25 -23 -3
-105 -30 -182 -61 -150 -59 -214 -71 -283 -53 -114 31 -210 219 -187 366 5 39
16 57 53 94 42 42 68 55 222 115 96 38 183 76 193 84 12 11 18 28 17 52 -3 48
-2 50 13 50 8 0 36 -60 70 -152z m-8952 92 c63 -18 109 -88 109 -167 0 -28 3
-33 18 -29 9 3 82 24 162 47 80 24 156 51 169 61 41 31 42 6 4 -89 l-37 -91
-105 -22 c-149 -32 -251 -70 -251 -94 0 -13 172 -86 202 -86 9 0 28 14 41 30
25 30 47 39 47 20 0 -5 -24 -69 -53 -142 -30 -73 -56 -141 -60 -150 -3 -10
-12 -15 -20 -12 -11 4 -13 17 -10 48 5 37 2 44 -20 59 -53 34 -452 188 -475
182 -12 -3 -31 -19 -40 -35 -12 -19 -22 -26 -31 -21 -10 7 -11 13 -1 30 6 12
33 79 59 149 79 207 123 281 186 308 37 16 59 17 106 4z m-315 -751 c43 -8 51
-13 47 -28 -3 -12 -17 -21 -42 -25 -71 -11 -110 -63 -126 -168 -6 -40 -4 -47
12 -52 28 -8 201 -46 213 -46 13 0 13 85 0 109 -5 10 -22 24 -38 30 -21 9 -28
18 -25 30 4 16 13 16 129 -8 96 -20 124 -30 124 -42 0 -11 -15 -19 -47 -25
-50 -10 -81 -40 -85 -83 -3 -23 2 -26 85 -44 116 -25 151 -19 177 33 13 26 20
59 20 99 0 53 -4 65 -31 95 -16 19 -39 38 -50 41 -11 4 -19 15 -19 29 l0 23
90 -20 c61 -14 90 -25 90 -34 0 -8 -20 -103 -44 -211 -25 -108 -50 -227 -56
-264 -9 -53 -16 -68 -29 -68 -13 0 -16 7 -13 34 3 28 -1 37 -22 51 -14 10
-131 40 -259 67 -254 53 -266 53 -289 -2 -9 -20 -17 -27 -26 -22 -10 7 -6 35
17 133 16 68 39 174 51 234 11 61 23 120 25 132 6 24 2 24 121 2z m9463 -153
c88 -46 136 -190 96 -288 -4 -11 0 -18 14 -23 12 -3 21 -15 21 -25 0 -15 -16
-22 -82 -38 -59 -14 -85 -16 -90 -8 -13 18 -9 23 26 46 80 49 104 155 50 219
-53 63 -120 29 -149 -75 -56 -200 -79 -243 -149 -275 -45 -20 -110 -24 -149
-10 -103 40 -165 180 -132 304 19 72 19 67 -5 67 -24 0 -39 29 -20 40 7 4 46
13 88 20 42 7 82 14 89 17 8 3 13 -2 13 -15 0 -11 -16 -30 -38 -46 -58 -40
-85 -82 -90 -142 -12 -142 132 -192 196 -69 8 16 23 68 34 114 21 99 53 152
105 180 46 24 132 27 172 7z m-9674 -508 c7 -18 24 -43 37 -54 12 -12 146 -83
296 -158 242 -121 273 -139 270 -158 -3 -19 -39 -34 -303 -119 -165 -54 -307
-102 -316 -107 -9 -6 -19 -24 -22 -41 -4 -21 -12 -31 -24 -31 -17 0 -17 10 -7
167 6 93 12 169 13 171 0 1 8 2 16 2 9 0 15 -9 15 -24 0 -46 10 -56 54 -56 37
0 340 80 374 99 15 9 -236 132 -317 155 -63 18 -86 10 -96 -34 -4 -16 -13 -30
-21 -30 -10 0 -14 14 -14 58 0 89 12 192 22 192 5 0 15 -15 23 -32z m9849
-215 c18 -362 19 -403 5 -407 -8 -3 -47 -6 -86 -8 -70 -4 -73 -3 -73 19 0 16
6 23 19 23 27 0 71 39 87 76 14 34 18 112 8 152 -7 25 -30 27 -169 15 l-77 -6
5 -41 c7 -47 44 -86 83 -86 17 0 24 -5 24 -20 0 -18 -7 -20 -77 -20 -43 0
-102 -3 -130 -6 -49 -6 -53 -5 -53 14 0 15 10 24 35 32 44 15 65 44 65 93 l0
39 -97 -4 c-104 -4 -134 -15 -152 -55 -16 -35 -13 -107 5 -152 17 -44 43 -65
95 -78 24 -7 35 -16 37 -31 3 -21 0 -22 -87 -22 -86 0 -91 1 -95 23 -3 12 -8
130 -11 262 -4 132 -9 250 -12 263 -4 17 -1 22 16 22 15 0 21 -6 21 -22 1 -59
30 -66 240 -57 96 4 203 8 238 8 70 1 102 22 102 66 0 15 6 25 14 25 11 0 15
-27 20 -117z m-9260 -674 c3 -73 9 -150 13 -171 5 -35 4 -40 -12 -36 -11 2
-22 16 -27 35 -10 38 -29 45 -112 44 -86 -1 -409 -29 -430 -37 -20 -8 -36 -35
-36 -63 0 -12 -6 -21 -13 -21 -10 0 -17 37 -25 148 -7 81 -12 155 -12 165 0
29 28 19 35 -13 4 -17 16 -35 28 -41 22 -13 173 -8 392 12 131 12 155 23 155
70 0 24 9 35 31 38 3 1 9 -58 13 -130z m9214 35 c31 -4 56 -13 59 -20 4 -11
-43 -439 -64 -576 -6 -38 -6 -38 -53 -38 -26 0 -68 3 -92 6 -36 5 -45 10 -41
23 2 10 22 22 46 28 23 7 54 25 69 40 32 34 53 116 33 133 -14 12 -451 62
-503 58 -32 -3 -38 -7 -48 -38 -7 -19 -19 -37 -29 -39 -15 -3 -17 2 -12 35 4
22 14 100 23 174 9 74 18 137 19 139 10 10 25 -14 25 -38 0 -57 22 -68 180
-90 80 -11 179 -22 220 -26 41 -3 92 -8 112 -11 36 -5 37 -4 49 34 22 75 -2
128 -78 166 -22 11 -33 24 -33 37 0 18 4 20 33 15 17 -3 56 -8 85 -12z m-9158
-450 c0 -19 -58 -105 -195 -290 -107 -144 -195 -265 -195 -267 0 -2 87 15 193
39 207 46 227 56 227 115 0 21 5 29 18 29 15 0 22 -18 40 -103 12 -57 22 -107
22 -110 0 -18 -29 -4 -48 23 -18 23 -30 30 -57 30 -28 0 -380 -69 -438 -86
-23 -7 -57 -61 -57 -90 0 -12 -6 -24 -14 -27 -10 -4 -19 21 -35 99 l-22 104
175 232 c97 127 175 233 173 234 -2 2 -199 -42 -315 -71 -35 -8 -62 -42 -62
-75 0 -22 -5 -30 -18 -30 -16 0 -22 17 -37 103 -23 123 -23 119 -9 124 6 2 21
-13 33 -33 l22 -36 62 7 c34 3 163 28 287 55 124 27 231 49 238 49 7 1 12 -10
12 -25z m9027 -371 c46 -15 83 -31 83 -36 0 -10 -180 -590 -184 -594 -3 -3
-167 38 -174 43 -2 1 -1 11 2 21 4 14 17 18 52 20 74 3 121 46 131 121 l5 38
-246 73 c-135 40 -253 71 -263 69 -10 -2 -27 -20 -38 -40 -15 -27 -25 -34 -35
-28 -20 12 77 330 101 330 14 0 16 -8 12 -44 -5 -42 -4 -45 27 -61 18 -9 134
-47 259 -85 250 -75 235 -75 260 1 17 52 6 83 -45 128 -38 34 -58 71 -37 71 4
0 44 -12 90 -27z m-8842 -506 c71 -40 141 -173 152 -289 11 -116 -45 -175
-256 -268 -58 -26 -130 -59 -159 -74 l-53 -27 2 -47 c6 -85 -21 -57 -93 102
-37 82 -68 151 -68 153 0 13 34 -2 57 -26 39 -38 49 -36 258 60 217 101 240
125 216 234 -19 86 -102 165 -172 165 -30 0 -252 -94 -331 -141 -66 -39 -67
-40 -70 -86 -2 -25 -8 -48 -14 -50 -9 -3 -104 189 -104 211 0 13 28 5 45 -14
33 -37 92 -27 239 39 169 76 180 79 251 80 45 1 70 -5 100 -22z m8262 -140
c-2 -7 -32 -14 -73 -18 -84 -7 -125 -27 -155 -76 -34 -55 -30 -109 10 -145 54
-48 113 -33 209 55 79 73 115 91 179 90 185 -1 247 -231 99 -361 -29 -25 -35
-36 -27 -46 13 -16 4 -46 -14 -46 -7 0 -45 14 -84 32 -88 38 -94 63 -16 64 62
0 129 33 150 74 21 40 19 103 -2 123 -26 23 -68 30 -95 16 -12 -6 -57 -40 -98
-74 -41 -34 -95 -72 -119 -85 -88 -44 -207 -7 -251 80 -53 104 0 273 102 326
28 15 29 16 13 34 -11 12 -14 26 -10 39 6 20 10 19 96 -25 52 -26 89 -50 86
-57z m-767 -984 c48 -28 64 -69 58 -150 l-5 -71 44 34 c37 28 53 34 95 34 61
0 99 -21 136 -74 24 -35 27 -48 27 -120 -1 -88 -21 -142 -74 -199 -75 -81
-191 -89 -191 -12 0 45 25 57 105 50 67 -7 74 -5 84 13 21 40 13 87 -23 132
-94 119 -218 135 -202 25 5 -32 3 -45 -9 -55 -29 -24 -40 4 -40 104 0 83 -3
96 -27 133 -30 45 -88 78 -123 69 -56 -14 -72 -72 -34 -120 26 -33 44 -33 65
-1 22 33 44 17 44 -33 0 -91 -113 -114 -155 -32 -40 78 1 209 83 261 52 33
100 37 142 12z m-6636 -101 c15 -18 9 -35 -124 -310 l-141 -291 16 -37 c18
-44 18 -41 1 -47 -20 -8 -232 231 -218 245 7 7 17 5 33 -6 41 -28 62 -20 97
37 18 29 32 56 32 61 0 4 -32 43 -71 86 l-72 78 -42 -15 c-44 -14 -85 -46 -85
-64 0 -6 8 -24 17 -40 14 -23 15 -31 4 -41 -10 -11 -16 -8 -32 12 -11 14 -47
55 -79 91 -45 51 -56 70 -47 77 8 7 18 6 31 -4 39 -28 97 -14 376 86 151 54
278 99 281 99 3 1 13 -7 23 -17z m6249 -300 c22 -19 22 -50 0 -74 -20 -22 -33
-23 -95 0 -48 17 -50 16 -64 -2 -29 -40 -10 -105 55 -187 l39 -49 22 45 c29
60 87 95 159 95 64 0 95 -15 148 -73 50 -54 66 -102 61 -178 -8 -113 -100
-196 -205 -186 -105 11 -199 79 -283 203 -60 91 -85 167 -75 232 13 90 78 169
155 190 39 10 56 6 83 -16z m-5913 -66 c41 -33 77 -61 79 -62 1 -2 -27 -107
-64 -234 -37 -127 -65 -233 -63 -235 2 -3 96 47 208 110 112 63 209 115 215
115 6 0 24 -13 39 -29 15 -16 52 -46 81 -67 30 -22 53 -43 51 -49 -3 -10 -12
-10 -58 1 -39 9 -68 -19 -225 -214 -85 -107 -133 -175 -133 -190 0 -13 8 -37
17 -53 38 -64 -4 -45 -130 59 -129 106 -149 137 -72 112 36 -12 38 -11 77 26
22 22 86 95 141 163 l101 125 -105 -56 c-57 -31 -160 -88 -229 -126 -96 -54
-129 -68 -142 -61 -10 5 -18 16 -18 23 0 7 32 118 70 246 39 129 69 238 68
242 -7 18 -248 -294 -248 -321 0 -9 9 -30 19 -47 14 -22 16 -35 9 -42 -8 -8
-29 5 -72 41 -34 29 -75 62 -91 74 -24 17 -27 24 -18 34 10 10 18 10 38 1 48
-22 61 -14 142 81 134 157 243 296 243 309 0 7 -9 28 -20 46 -21 33 -19 58 3
45 7 -3 46 -34 87 -67z m5528 -330 c32 -36 34 -42 29 -90 -2 -28 -8 -59 -11
-68 -6 -14 1 -18 41 -24 88 -12 148 -55 178 -126 22 -53 19 -97 -11 -156 -99
-198 -402 -191 -380 10 3 26 12 61 21 77 15 30 15 31 -7 31 -41 0 -97 20 -128
47 -113 95 -67 267 90 332 14 6 52 9 84 8 54 -3 62 -7 94 -41z m-4741 -233
c100 -48 142 -73 140 -83 -3 -16 -5 -16 -49 -5 -19 5 -31 1 -48 -17 -22 -24
-100 -169 -100 -188 0 -9 250 -134 255 -128 12 13 76 152 84 182 10 37 8 40
-21 68 -61 57 -16 50 132 -22 157 -75 187 -103 101 -93 l-50 6 -115 -233 c-64
-128 -116 -237 -116 -242 0 -5 14 -23 30 -40 32 -31 38 -48 18 -48 -7 0 -76
30 -155 67 -144 69 -183 101 -102 88 33 -6 45 -3 63 14 22 21 113 197 105 205
-2 2 -62 31 -132 65 l-128 60 -40 -86 c-23 -47 -44 -103 -46 -123 -5 -33 -2
-40 21 -55 24 -16 36 -45 19 -45 -4 0 -74 32 -154 71 -153 74 -180 101 -94 91
41 -4 45 -2 65 29 36 57 200 399 207 429 4 23 0 34 -21 53 -25 23 -34 47 -18
47 4 0 71 -30 149 -67z m4223 -280 c72 -137 141 -256 153 -266 11 -10 28 -16
36 -13 56 18 61 18 61 4 0 -21 -261 -161 -274 -147 -8 7 -2 17 19 34 28 23 29
26 19 63 -6 21 -57 125 -113 231 -113 210 -102 200 -177 176 -39 -12 -36 21 4
49 21 14 57 46 82 71 24 25 47 45 51 45 3 0 66 -111 139 -247z m-3405 -73 c88
-27 193 -59 233 -71 84 -24 81 -16 46 -134 -22 -77 -54 -72 -54 9 0 38 -29 80
-70 101 -39 20 -122 37 -131 28 -5 -5 -23 -55 -40 -112 -35 -117 -33 -121 38
-121 36 0 45 5 71 38 22 26 34 34 41 26 8 -7 2 -42 -23 -123 -19 -63 -37 -116
-40 -118 -3 -3 -12 -3 -21 0 -10 4 -15 19 -15 46 0 32 -6 44 -31 65 -52 44
-65 37 -94 -55 -39 -125 -33 -159 33 -193 82 -41 170 -25 214 40 22 33 42 43
52 26 3 -6 -39 -163 -48 -179 -1 -1 -123 36 -271 82 -180 55 -270 87 -270 96
0 10 13 14 39 14 30 0 43 6 58 25 17 24 148 444 148 478 0 19 -29 52 -46 52
-7 0 -16 5 -19 10 -10 16 5 32 24 25 9 -4 88 -28 176 -55z m2397 -126 c10 -38
18 -79 18 -91 0 -35 -32 -28 -51 10 -9 17 -31 43 -50 55 -29 20 -42 23 -88 19
-30 -3 -58 -10 -63 -15 -13 -13 88 -501 109 -525 12 -13 27 -18 50 -15 22 3
34 -1 38 -10 3 -8 4 -16 3 -17 -9 -9 -322 -66 -334 -61 -23 9 -16 20 26 38 38
16 40 19 40 60 0 46 -74 438 -91 477 -8 20 -14 22 -47 17 -85 -15 -122 -49
-122 -113 0 -15 -4 -33 -8 -39 -11 -17 -42 -25 -43 -11 0 7 -6 47 -13 90 -9
56 -10 80 -2 83 22 8 591 122 601 120 5 -1 17 -34 27 -72z m-1787 -19 c282
-23 374 -62 390 -168 13 -86 -42 -159 -137 -181 l-27 -6 84 -142 c48 -81 94
-148 109 -157 14 -9 26 -24 26 -34 0 -17 -6 -19 -42 -14 -24 4 -69 9 -100 13
l-57 6 -56 108 c-58 114 -126 210 -149 210 -8 0 -16 -16 -19 -37 -25 -162 -18
-209 33 -219 21 -5 30 -12 30 -26 0 -12 -5 -18 -13 -15 -7 3 -81 13 -165 22
-112 13 -152 22 -152 32 0 7 11 13 25 13 27 0 75 40 75 62 0 7 11 103 25 213
14 110 25 215 25 234 0 38 -24 71 -51 71 -10 0 -21 5 -24 10 -12 20 5 27 47
20 24 -5 79 -11 123 -15z m915 -54 c37 -18 38 -18 43 0 3 11 14 19 26 19 16 0
21 -6 21 -29 0 -15 3 -56 6 -90 6 -55 5 -61 -12 -61 -12 0 -28 16 -43 45 -34
65 -73 90 -139 90 -46 0 -57 -4 -78 -28 -52 -60 -14 -119 106 -168 107 -43
157 -75 184 -117 33 -50 40 -94 26 -153 -33 -136 -211 -201 -345 -125 -46 25
-55 24 -55 -6 0 -13 -7 -18 -25 -18 l-25 0 0 100 c0 89 2 100 18 100 11 0 23
-16 35 -45 10 -24 36 -60 58 -80 36 -32 44 -35 100 -35 54 0 64 3 90 29 67 68
18 153 -118 205 -138 53 -183 101 -183 198 0 86 34 139 110 172 50 22 152 20
200 -3z"/>
<path d="M6117 9681 c-31 -44 -60 -86 -62 -93 -4 -10 16 -18 72 -30 43 -9 79
-15 81 -13 5 5 -21 215 -27 215 -4 0 -32 -36 -64 -79z"/>
<path d="M3328 9691 c-116 -37 -152 -129 -112 -284 44 -171 163 -293 268 -273
77 15 132 73 151 160 13 62 -46 237 -110 320 -49 65 -132 97 -197 77z"/>
<path d="M5017 8999 c-81 -19 -117 -49 -137 -114 -16 -52 -25 -62 -74 -84
-105 -46 -273 -230 -348 -381 -56 -112 -63 -185 -25 -263 25 -49 111 -143 217
-236 25 -22 43 -41 40 -44 -3 -2 -30 -1 -60 3 -30 4 -88 3 -130 -1 -48 -5 -96
-4 -133 4 -94 18 -170 -8 -224 -79 -25 -33 -28 -47 -31 -123 -5 -106 8 -125
109 -176 85 -43 127 -45 262 -8 96 26 100 26 145 10 72 -26 133 -31 222 -18
61 9 94 9 135 1 40 -8 74 -8 127 -1 57 9 89 8 146 -3 77 -15 202 -8 243 14 16
9 37 8 91 -6 64 -15 104 -18 218 -13 19 1 58 -2 86 -6 44 -6 59 -4 113 20 l62
28 41 -42 c22 -23 38 -44 35 -47 -8 -9 -1396 -4 -1937 6 -694 13 -1073 13
-1105 -2 l-25 -11 0 -437 c0 -240 -2 -439 -5 -442 -3 -3 -39 28 -79 68 -86 84
-125 100 -221 90 -160 -17 -197 -18 -316 -6 -145 15 -171 10 -215 -43 -24 -29
-26 -37 -21 -97 3 -36 17 -137 31 -225 28 -172 33 -284 21 -437 l-7 -98 36 0
c21 0 62 13 96 30 73 37 88 37 96 4 4 -14 0 -175 -7 -357 -8 -183 -14 -492
-13 -687 1 -324 3 -365 23 -465 38 -187 61 -267 106 -362 52 -110 116 -182
210 -237 36 -21 65 -43 65 -48 0 -5 -8 -23 -17 -41 -11 -22 -18 -65 -21 -142
-7 -187 51 -410 181 -697 234 -519 617 -946 1020 -1138 168 -80 298 -117 483
-135 54 -6 67 -12 130 -62 133 -107 234 -138 449 -137 227 0 338 34 450 136
l60 54 120 23 c499 96 965 390 1214 767 148 224 233 418 414 943 67 196 129
363 138 372 9 9 38 20 65 24 220 33 354 308 354 725 0 118 -21 397 -40 530 -6
41 -28 179 -50 306 -60 350 -84 587 -62 620 4 6 38 17 75 23 38 7 86 19 108
27 68 28 124 109 168 244 12 36 33 82 46 102 14 21 25 42 25 46 0 5 -27 19
-60 31 l-60 22 0 49 c0 56 -23 132 -52 173 -26 36 -80 63 -155 76 -33 6 -100
25 -149 41 -211 72 -287 46 -417 -140 -29 -41 -60 -75 -68 -75 -12 0 -14 64
-15 440 0 242 -4 461 -8 488 l-8 47 -263 0 c-144 0 -344 3 -444 7 -179 6 -182
7 -176 27 17 55 17 154 0 212 -41 145 -120 250 -335 448 -88 81 -197 188 -242
239 -46 50 -119 130 -164 177 -103 109 -132 152 -178 273 -44 115 -89 169
-151 185 -61 16 -185 22 -228 11z m204 -68 c51 -19 97 -69 114 -124 8 -29 23
-77 32 -107 25 -83 93 -160 517 -590 238 -241 265 -272 298 -340 56 -115 88
-270 64 -308 -18 -30 -58 -12 -126 58 -71 73 -94 84 -105 50 -10 -33 -61 -53
-109 -45 -23 4 -59 7 -81 7 -22 -1 -78 -3 -125 -4 -67 -2 -95 1 -127 16 -41
18 -43 18 -80 0 -56 -28 -191 -26 -256 3 -48 22 -49 22 -86 4 -61 -31 -117
-35 -192 -12 -51 16 -73 19 -100 11 -51 -15 -159 -12 -218 6 -50 14 -56 14
-114 -6 -140 -47 -233 -35 -301 40 -45 50 -54 97 -30 147 36 73 116 100 215
73 28 -8 45 -7 72 5 52 22 116 19 192 -9 l66 -24 50 21 c26 12 49 27 49 33 0
11 -73 83 -242 236 -110 100 -132 138 -126 213 6 68 43 142 119 235 116 143
208 222 286 245 66 20 73 29 66 86 -5 43 -3 53 18 75 23 25 26 25 129 20 58
-2 117 -9 131 -15z m-1066 -1541 c358 -5 1174 -12 1815 -15 641 -4 1167 -9
1170 -12 11 -10 21 -480 15 -723 -11 -473 -71 -1056 -141 -1355 -150 -647
-230 -917 -379 -1275 -24 -58 -64 -159 -88 -225 -226 -610 -600 -1189 -1039
-1609 -80 -78 -113 -116 -104 -119 26 -10 190 12 277 37 260 75 457 187 623
352 236 235 374 493 506 945 148 507 204 651 285 738 54 58 130 99 202 109
l48 7 -1 145 c0 166 -6 216 -79 700 -88 576 -98 668 -92 805 7 143 18 207 59
340 50 165 156 354 219 392 60 36 81 36 190 -2 56 -19 139 -42 183 -51 103
-21 130 -35 164 -86 24 -37 27 -51 27 -125 0 -49 4 -83 10 -83 5 0 27 -5 48
-11 37 -10 48 -33 28 -55 -5 -5 -25 -60 -46 -122 -56 -171 -96 -202 -257 -202
l-77 0 -7 -36 c-12 -63 5 -224 57 -547 106 -662 123 -844 100 -1044 -26 -223
-100 -414 -192 -497 -59 -53 -96 -63 -161 -43 -35 11 -50 12 -56 3 -5 -6 -35
-99 -67 -206 -124 -420 -230 -704 -364 -971 -67 -133 -104 -188 -208 -309
-299 -349 -638 -544 -1112 -640 l-154 -32 -47 -48 c-58 -59 -100 -81 -215
-111 -118 -31 -318 -33 -409 -5 -121 36 -184 78 -236 154 -13 19 -39 26 -190
51 -266 45 -384 88 -560 205 -192 128 -352 290 -549 553 -164 219 -287 461
-386 757 -63 189 -80 283 -67 363 16 93 47 151 99 182 44 27 64 64 44 84 -6 6
-40 14 -76 18 -140 14 -248 98 -321 248 -44 91 -89 263 -103 397 -15 143 -17
528 -7 1082 7 388 7 482 -3 482 -7 0 -30 -13 -50 -29 -49 -38 -100 -64 -116
-57 -11 4 -12 26 -8 99 7 112 -6 212 -53 396 -18 75 -34 146 -34 159 0 44 28
91 64 109 34 16 41 16 128 -1 112 -21 166 -23 280 -12 114 11 147 4 197 -44
85 -82 112 -172 137 -450 19 -215 15 -544 -12 -960 -31 -478 -21 -713 37 -937
24 -91 74 -217 94 -233 10 -8 32 -5 86 11 95 28 145 17 203 -44 132 -139 105
-370 -51 -439 -24 -10 -43 -26 -43 -34 0 -73 106 -358 205 -552 237 -465 576
-770 960 -863 82 -19 220 -26 229 -10 3 5 -47 60 -112 123 -279 271 -427 466
-651 858 -184 320 -304 588 -456 1015 -151 426 -268 932 -321 1385 -53 465
-68 630 -95 1085 -11 178 -5 784 7 828 6 21 51 21 999 7z m-986 -1907 c6 -21
22 -114 36 -208 57 -366 162 -836 234 -1049 17 -50 31 -93 31 -98 0 -4 -55 -7
-122 -5 l-122 2 -22 38 c-27 48 -60 176 -74 282 -20 156 -24 574 -6 773 9 101
16 207 16 236 0 46 5 66 16 66 2 0 8 -17 13 -37z m3990 -85 c48 -149 121 -749
121 -994 0 -104 -5 -114 -67 -135 -90 -29 -182 -119 -240 -234 -52 -102 -73
-163 -169 -482 -142 -474 -202 -619 -345 -834 -170 -255 -395 -430 -674 -526
-84 -28 -175 -41 -175 -24 0 6 63 84 140 173 265 304 389 470 547 733 98 163
164 303 291 620 255 639 366 984 487 1525 41 181 50 210 64 210 5 0 14 -15 20
-32z m-3454 -1843 c53 -131 160 -342 247 -485 215 -358 330 -521 530 -749 70
-80 124 -149 121 -154 -13 -21 -157 15 -254 64 -223 111 -442 315 -586 544
-147 235 -293 564 -293 659 0 39 4 47 48 83 27 23 66 66 87 97 47 68 48 67
100 -59z"/>
<path d="M4992 8898 c-13 -13 -15 -106 -3 -148 5 -19 23 -31 81 -54 76 -30
142 -37 193 -22 20 6 27 5 27 -6 0 -28 -44 -43 -150 -48 -81 -4 -105 -8 -105
-19 0 -8 11 -16 25 -17 14 -2 40 -6 58 -10 42 -8 117 11 165 42 36 23 37 26
37 82 0 104 -53 171 -157 201 -40 11 -98 -3 -107 -25 -8 -21 -31 -12 -31 11 0
23 -17 29 -33 13z m148 -35 c0 -10 -62 -73 -72 -73 -17 0 -7 32 17 55 23 23
55 34 55 18z m66 -34 c6 -11 -72 -99 -89 -99 -4 0 -7 14 -5 32 2 24 12 38 37
55 38 26 47 28 57 12z m64 -74 c0 -18 -75 -69 -89 -60 -16 9 -14 19 10 49 23
29 79 37 79 11z"/>
<path d="M4760 8578 c-56 -62 -124 -144 -151 -182 -88 -125 -68 -185 111 -324
52 -40 140 -118 195 -172 129 -126 170 -139 202 -63 15 37 14 124 -3 167 -4 9
-42 35 -86 57 -57 29 -84 49 -96 71 -28 52 -48 66 -109 78 -93 19 -124 65 -60
91 67 27 237 213 237 258 0 22 -103 131 -123 131 -9 0 -61 -51 -117 -112z"/>
<path d="M5265 8576 c-18 -13 -8 -25 145 -192 424 -458 714 -754 739 -754 13
0 10 17 -15 78 -24 59 -106 150 -369 412 -142 140 -295 299 -342 353 -47 54
-96 103 -110 108 -30 11 -26 12 -48 -5z"/>
<path d="M5092 8435 c-17 -15 -42 -25 -60 -25 -24 0 -35 -8 -54 -37 -12 -20
-30 -46 -38 -59 -13 -21 -12 -26 17 -66 38 -53 144 -111 232 -126 82 -15 122
-36 170 -87 40 -43 71 -120 71 -176 0 -34 10 -37 80 -32 38 4 72 -1 111 -14
51 -17 61 -18 122 -4 37 7 67 17 67 21 0 4 -128 140 -285 301 -196 202 -295
297 -317 305 -74 25 -85 25 -116 -1z m312 -259 c89 -88 192 -196 230 -238 74
-84 72 -93 -14 -63 -23 8 -58 15 -76 15 -29 0 -35 4 -40 28 -33 149 -123 229
-308 272 -132 31 -194 68 -181 109 8 25 41 46 101 64 45 13 52 13 88 -5 22
-11 112 -93 200 -182z"/>
<path d="M5203 8013 c-9 -3 -13 -33 -13 -98 l0 -93 66 -7 c72 -8 84 -2 84 45
0 93 -76 178 -137 153z"/>
<path d="M4285 7720 c-19 -21 -16 -51 8 -84 11 -14 26 -19 68 -19 58 0 129 18
129 33 0 5 -25 27 -57 49 -65 47 -118 55 -148 21z"/>
<path d="M4579 7729 c-11 -6 -4 -18 26 -49 65 -66 152 -98 195 -70 13 8 10 14
-15 35 -74 62 -176 103 -206 84z"/>
<path d="M5480 7730 c-13 -9 -10 -15 15 -36 47 -40 126 -74 172 -74 23 0 44 4
47 8 8 13 -65 79 -106 97 -42 17 -106 20 -128 5z"/>
<path d="M4878 7724 c-28 -8 -22 -19 38 -60 50 -35 63 -39 117 -39 33 0 62 5
63 10 2 6 -22 27 -54 47 -57 37 -123 54 -164 42z"/>
<path d="M5785 7720 c-15 -24 57 -88 110 -97 27 -4 36 -2 41 12 9 23 -5 44
-46 73 -34 23 -94 30 -105 12z"/>
<path d="M5200 7702 c0 -13 52 -58 87 -76 39 -20 116 -21 132 -2 24 28 -97 86
-181 86 -21 0 -38 -4 -38 -8z"/>
<path d="M3331 7241 c-18 -12 -10 -756 13 -1076 32 -463 47 -627 61 -702 8
-43 26 -152 40 -243 160 -1047 603 -2098 1139 -2699 161 -181 483 -471 523
-471 54 0 364 277 525 470 236 282 440 594 607 928 214 427 427 1012 546 1497
96 391 183 968 215 1425 11 160 14 703 4 797 l-7 60 -996 7 c-548 4 -1032 4
-1074 0 -73 -6 -76 -8 -55 -22 85 -56 191 -193 242 -315 27 -62 30 -65 69 -71
69 -11 123 -41 156 -87 52 -72 62 -123 55 -289 -7 -166 1 -214 46 -258 16 -16
48 -38 72 -50 52 -24 102 -74 122 -122 19 -45 52 -234 67 -380 6 -63 20 -136
30 -163 22 -56 24 -117 5 -179 -9 -32 -11 -71 -7 -129 6 -73 8 -79 15 -49 4
19 19 71 33 115 18 56 25 101 24 150 -1 39 3 81 8 95 8 22 25 96 50 219 5 27
13 36 36 43 25 7 34 4 52 -17 20 -23 21 -27 7 -71 -8 -26 -14 -62 -14 -79 0
-46 -43 -171 -67 -197 -24 -26 -44 -81 -104 -288 -76 -263 -75 -258 -45 -350
37 -115 28 -155 -52 -230 -33 -30 -67 -61 -76 -68 -9 -7 -18 -25 -22 -40 -3
-15 -15 -57 -26 -94 -19 -58 -20 -71 -8 -92 14 -27 7 -60 -13 -54 -20 7 -19
100 3 186 11 44 20 89 20 99 0 11 11 30 25 43 19 17 23 29 19 49 -11 44 -22
45 -34 3 -16 -63 -28 -59 -35 13 -9 84 -3 123 29 174 32 50 34 107 7 219 -24
100 -16 171 27 262 18 36 32 71 32 78 0 6 12 12 26 12 19 0 25 4 22 18 -3 13
-14 17 -50 17 -25 0 -50 4 -54 8 -5 4 3 28 16 52 l24 44 -23 25 c-26 28 -22
56 8 56 25 0 36 16 18 27 -8 4 -23 24 -33 43 -16 30 -18 59 -19 195 0 162 -4
183 -43 228 -27 30 -31 19 -25 -65 3 -56 0 -107 -10 -154 -12 -58 -13 -108 -6
-270 8 -203 2 -271 -27 -295 -12 -10 -14 1 -14 68 0 117 -12 263 -21 263 -5 0
-15 -21 -22 -47 -18 -60 -33 -65 -41 -13 -12 75 -34 37 -51 -85 -10 -73 -38
-131 -73 -149 -27 -14 -38 -14 -108 -1 -43 9 -86 23 -96 31 -21 20 -35 61 -43
134 -9 84 -16 110 -27 110 -5 0 -12 -9 -15 -20 -7 -26 -19 -25 -37 3 -24 37
-30 86 -12 93 24 9 20 26 -21 80 -36 46 -38 53 -38 119 0 39 4 91 9 118 12 67
-13 63 -49 -9 -25 -50 -31 -55 -53 -49 -23 6 -24 4 -18 -26 3 -18 17 -57 31
-87 19 -42 25 -71 25 -129 0 -86 -8 -94 -69 -64 -59 31 -79 28 -86 -12 -6 -30
-1 -38 49 -88 52 -52 56 -59 56 -103 0 -50 -22 -116 -39 -116 -18 0 -12 -36 8
-54 14 -13 32 -17 63 -14 l42 3 1 -62 c0 -48 5 -68 23 -92 15 -20 22 -44 22
-73 0 -43 13 -78 23 -62 2 5 12 38 21 74 29 112 61 119 75 16 10 -75 31 -97
32 -35 2 61 12 104 25 104 7 0 37 -24 68 -52 31 -29 59 -53 61 -53 10 0 4 30
-15 71 -31 70 -33 69 93 69 61 0 118 -4 126 -9 12 -8 12 -17 -1 -63 -9 -29
-19 -61 -24 -72 -12 -31 18 -14 43 25 44 67 54 79 69 79 13 0 15 -9 11 -42 -3
-24 -8 -55 -12 -70 -6 -21 -4 -28 8 -28 31 0 42 -31 44 -124 1 -50 4 -125 8
-167 5 -59 3 -78 -8 -87 -10 -9 -103 -14 -310 -17 -268 -4 -300 -6 -351 -25
-31 -12 -56 -27 -56 -34 0 -15 28 -86 34 -86 2 0 16 6 31 14 15 8 60 18 100
21 58 6 80 4 109 -10 32 -15 43 -16 77 -6 29 9 44 9 53 1 8 -5 31 -52 52 -102
l38 -92 16 55 c38 126 93 181 160 158 38 -14 46 -44 26 -94 -9 -21 -16 -46
-16 -57 0 -10 -11 -41 -25 -68 -32 -63 -32 -100 -1 -129 38 -36 68 -25 86 31
8 27 20 46 25 45 18 -6 17 -45 -2 -79 -14 -26 -17 -54 -16 -138 2 -64 -3 -126
-12 -160 -8 -32 -16 -131 -19 -241 -3 -102 -11 -218 -17 -257 -15 -89 2 -176
46 -242 24 -36 48 -54 126 -95 122 -63 131 -71 127 -108 -5 -53 -45 -72 -151
-72 -83 0 -98 3 -159 33 -43 21 -82 32 -110 32 -62 1 -120 16 -135 36 -18 25
-16 145 3 256 19 106 14 224 -12 340 -13 57 -15 101 -10 212 7 172 8 120 -2
391 -8 215 -20 301 -35 249 -4 -10 -9 -209 -12 -442 -5 -330 -9 -432 -21 -464
-8 -24 -14 -78 -14 -135 0 -52 -5 -114 -11 -138 -9 -37 -8 -54 10 -112 13 -43
21 -103 23 -161 3 -93 3 -94 -25 -117 -16 -12 -68 -42 -115 -66 -47 -24 -106
-61 -131 -82 -45 -37 -150 -77 -203 -77 -13 0 -35 11 -48 25 -32 34 -24 95 19
139 38 39 39 60 5 110 -138 202 -259 690 -378 1526 -57 393 -75 563 -91 832
-13 212 -19 261 -37 303 -11 28 -29 77 -38 111 -21 72 -13 99 48 166 36 40 40
50 51 133 17 124 60 315 77 343 8 12 21 22 29 22 11 0 13 -24 13 -122 -1 -84
6 -164 20 -251 12 -70 22 -138 22 -152 0 -23 46 -101 72 -122 7 -6 32 -14 54
-18 l41 -6 7 53 c4 29 18 112 31 183 13 72 26 159 30 193 9 82 38 116 145 172
44 22 88 53 98 68 13 19 19 58 24 152 13 236 21 286 57 330 17 21 31 45 31 53
0 8 -18 27 -40 42 -66 46 -177 170 -210 234 -50 100 -34 132 46 92 25 -11 46
-21 47 -21 2 0 3 33 2 73 l0 74 -329 6 c-464 10 -1108 8 -1125 -2z m815 -79
c6 -4 32 -52 57 -107 25 -55 52 -103 59 -106 7 -4 69 -17 138 -30 160 -31 160
-32 44 -157 l-87 -93 17 -57 c9 -31 17 -88 19 -127 l2 -70 -28 2 c-15 1 -71
23 -125 48 l-97 46 -122 -62 c-95 -49 -125 -61 -135 -51 -9 9 -9 37 1 124 7
61 15 117 18 124 4 12 -55 72 -150 150 -32 26 -56 52 -54 58 6 18 47 34 157
58 l105 23 45 81 c75 135 105 167 136 146z m553 -1644 c13 -33 -3 -44 -33 -24
-34 22 -34 46 -1 46 17 0 28 -7 34 -22z m208 -135 c31 -67 34 -106 10 -111
-25 -5 -47 15 -68 63 -19 40 -25 125 -12 139 11 10 42 -30 70 -91z m243 -192
c0 -15 10 -19 53 -25 28 -3 78 -6 109 -6 68 0 117 -15 100 -32 -14 -14 -241
-14 -366 2 -57 7 -128 9 -169 5 -64 -7 -69 -6 -65 11 3 16 15 20 81 24 61 4
81 9 88 23 8 14 24 17 89 17 71 0 80 -2 80 -19z m338 -1064 c2 -9 -4 -20 -13
-23 -20 -8 -50 19 -40 36 10 17 49 8 53 -13z"/>
<path d="M4840 7137 c0 -35 43 -175 71 -232 17 -34 48 -79 69 -100 36 -35 42
-38 66 -26 23 10 26 16 20 44 -11 57 -84 191 -136 250 -57 63 -90 87 -90 64z"/>
<path d="M4740 7031 c0 -5 20 -31 45 -58 l45 -48 -16 45 c-9 25 -24 51 -32 58
-18 14 -42 16 -42 3z"/>
<path d="M5095 6706 c-33 -13 -68 -26 -77 -30 -24 -11 -39 -88 -48 -246 -5
-74 -15 -157 -24 -184 -15 -49 -59 -106 -82 -106 -7 0 -16 -5 -20 -12 -5 -8 2
-9 24 -5 39 8 57 -15 67 -84 11 -72 63 -158 119 -196 40 -27 58 -33 103 -33
121 0 184 72 200 231 l10 94 -49 51 c-49 51 -50 52 -43 100 4 27 13 72 21 99
8 28 14 64 13 80 0 17 3 47 7 67 9 51 -1 81 -38 123 -59 68 -105 81 -183 51z
m155 -74 c16 -13 23 -30 24 -58 1 -38 0 -39 -39 -44 l-40 -5 -3 -50 c-2 -27
-8 -55 -13 -62 -6 -7 -8 -21 -5 -31 4 -12 1 -22 -8 -25 -12 -5 -12 -11 -1 -44
16 -47 4 -67 -37 -59 -36 7 -37 -12 -2 -43 14 -12 24 -30 22 -39 -5 -28 -44
-26 -76 5 l-30 28 8 104 c6 64 5 111 -1 122 -5 10 -9 30 -9 44 0 26 2 27 35
21 43 -8 75 0 75 19 0 14 -10 19 -67 30 -30 6 -33 10 -33 44 0 53 13 61 101
61 59 0 82 -4 99 -18z m40 -170 c0 -21 -33 -56 -43 -45 -12 11 -8 51 6 56 25
11 37 7 37 -11z m-124 -382 c17 0 52 12 78 26 62 35 70 27 62 -59 -13 -137
-64 -197 -159 -184 -49 7 -115 50 -128 85 -13 33 -31 161 -24 172 3 5 35 -3
72 -16 38 -13 82 -24 99 -24z"/>
<path d="M5201 6064 c-24 -10 -49 -13 -78 -8 -53 8 -57 -8 -10 -36 45 -28 78
-25 110 8 26 27 35 52 20 52 -5 -1 -23 -8 -42 -16z"/>
<path d="M2385 6554 c-8 -9 -15 -19 -15 -23 0 -4 16 -83 35 -176 19 -94 35
-189 35 -213 0 -56 16 -52 48 13 33 66 41 188 18 269 -30 104 -86 164 -121
130z"/>
<path d="M2725 6550 c-27 -5 -74 -9 -102 -9 -29 -1 -53 -4 -53 -8 0 -5 9 -44
19 -88 43 -179 46 -226 45 -640 -1 -220 -5 -528 -11 -685 -14 -420 7 -738 63
-953 48 -188 164 -297 314 -297 74 0 150 28 150 55 0 10 -9 30 -20 45 -60 85
-126 272 -157 445 -20 114 -22 484 -4 780 7 116 14 390 14 610 1 376 0 406
-20 499 -27 121 -70 214 -111 239 -32 18 -47 19 -127 7z m186 -320 c4 -14 7
-46 8 -72 1 -37 -3 -50 -18 -58 -31 -16 -34 -13 -26 26 4 25 2 39 -6 45 -20
12 -39 -1 -39 -27 0 -19 -5 -24 -25 -24 -15 0 -28 7 -32 18 -9 25 -24 32 -45
21 -15 -8 -17 -17 -12 -43 7 -39 -10 -56 -32 -34 -21 20 -31 143 -13 154 14 9
150 22 204 20 22 -1 31 -7 36 -26z m14 -240 c11 -33 -3 -57 -55 -94 -28 -20
-50 -40 -50 -45 0 -6 21 -11 48 -13 41 -3 47 -6 47 -26 0 -22 -3 -23 -113 -27
-139 -4 -145 2 -73 81 28 30 51 60 51 64 0 5 -21 10 -47 12 -44 3 -48 5 -48
28 0 27 -3 26 202 38 24 2 33 -3 38 -18z m-15 -280 c15 -15 20 -33 20 -76 0
-71 -12 -94 -50 -94 -36 0 -41 27 -10 55 11 10 20 27 20 37 0 31 -33 17 -51
-22 -35 -73 -89 -96 -134 -57 -23 19 -29 34 -33 79 -4 52 -2 57 21 73 36 23
48 13 35 -31 -18 -66 19 -90 50 -33 47 87 91 110 132 69z m8 -326 c3 -75 -10
-104 -45 -104 -12 0 -14 6 -9 28 14 54 12 67 -10 70 -17 2 -23 -4 -28 -28 -5
-27 -9 -31 -33 -28 -22 2 -29 9 -31 31 -3 21 -9 27 -28 27 -26 0 -30 -13 -14
-56 15 -38 -1 -52 -34 -30 -24 15 -26 23 -26 85 0 46 4 71 13 75 6 2 64 4 127
3 l115 -2 3 -71z m-29 -263 c20 -13 11 -134 -13 -159 -23 -26 -64 -33 -102
-17 -28 11 -39 28 -57 87 -3 9 -18 18 -34 20 -23 2 -29 8 -31 35 l-3 32 83 4
c46 1 97 4 113 5 17 1 36 -2 44 -7z m2 -278 c2 -21 2 -56 -1 -78 -4 -32 -9
-40 -25 -40 -12 0 -19 6 -17 14 16 75 17 73 -14 69 -23 -2 -30 -9 -32 -29 -2
-16 -11 -29 -21 -32 -30 -7 -45 8 -37 37 6 23 3 26 -18 26 -32 0 -39 -23 -21
-67 17 -41 13 -53 -15 -46 -27 7 -38 30 -46 96 -10 88 -12 87 125 87 l119 0 3
-37z m5 -230 c12 -77 10 -136 -3 -140 -22 -8 -27 -3 -28 20 0 21 -5 22 -100
27 -94 5 -100 6 -103 27 -4 26 7 30 118 41 l75 7 -1 33 c-2 25 2 32 16 32 15
0 20 -11 26 -47z m24 -212 c20 -39 4 -48 -107 -60 -87 -10 -108 -10 -114 1
-16 24 -3 33 82 55 107 27 126 28 139 4z m27 -113 c5 -7 18 -42 28 -76 14 -47
16 -68 8 -80 -17 -27 -40 -26 -47 2 -8 31 -8 31 -81 6 -78 -27 -111 -26 -119
3 -6 24 15 47 46 47 31 0 128 41 128 54 0 8 -7 19 -15 26 -8 7 -12 16 -9 21 8
13 50 11 61 -3z"/>
<path d="M2775 5040 c-9 -15 13 -40 35 -40 22 0 44 25 35 40 -3 5 -19 10 -35
10 -16 0 -32 -5 -35 -10z"/>
<path d="M7493 6533 c-136 -147 -223 -417 -223 -696 0 -106 9 -179 115 -932
25 -176 50 -392 56 -480 14 -207 12 -201 57 -224 81 -41 155 -150 169 -248 3
-23 10 -40 14 -37 21 13 50 88 71 185 20 92 22 132 23 354 0 279 -5 323 -95
860 -27 160 -54 356 -60 436 -19 256 13 454 102 627 26 52 48 98 48 102 0 4
-21 10 -46 14 -25 3 -76 19 -114 36 -37 16 -73 30 -80 30 -6 0 -22 -12 -37
-27z m-8 -499 c73 -7 85 -14 85 -52 0 -23 -2 -24 -50 -17 -56 8 -62 0 -25 -35
31 -29 31 -35 -1 -65 -31 -29 -20 -38 42 -33 36 3 39 1 42 -24 l3 -27 -120 2
c-92 2 -122 5 -126 16 -9 24 4 47 45 80 22 18 40 38 40 45 0 7 -18 29 -40 49
-56 50 -53 83 5 73 16 -3 62 -8 100 -12z m77 -321 c15 -18 32 -153 19 -153
-86 -5 -136 -9 -178 -15 l-51 -7 -12 55 c-8 41 -8 62 0 77 16 30 33 25 27 -9
-7 -35 10 -53 42 -44 14 4 24 16 28 35 4 22 10 28 27 26 13 -2 22 -12 24 -25
4 -27 27 -36 43 -17 10 12 10 22 1 46 -17 46 1 64 30 31z m-142 -265 l0 -40
68 8 c122 14 127 13 130 -23 l3 -31 -85 -7 c-96 -8 -116 -20 -98 -60 13 -28 2
-40 -21 -22 -10 7 -23 46 -34 99 -16 84 -16 88 2 108 24 27 35 17 35 -32z
m229 -220 c4 -13 11 -51 15 -85 l7 -63 -35 0 c-19 0 -69 -7 -112 -15 -50 -9
-82 -11 -88 -5 -5 5 -10 40 -10 77 -1 56 2 68 16 71 13 2 17 -5 20 -35 2 -30
7 -38 23 -38 13 0 21 8 23 21 4 31 43 39 61 14 7 -11 22 -20 33 -20 21 0 21
18 3 78 -6 18 -4 22 14 22 13 0 25 -9 30 -22z m47 -273 c11 -46 1 -52 -88 -57
-58 -3 -93 -10 -116 -23 -29 -17 -34 -18 -42 -5 -5 8 -10 32 -10 53 l0 37 48
1 c26 0 65 4 87 8 22 5 57 9 77 10 32 1 39 -3 44 -24z m-164 -159 c35 -18 87
-42 116 -52 37 -13 52 -23 52 -36 0 -10 -4 -18 -8 -18 -5 0 -51 -27 -103 -59
-52 -33 -97 -57 -101 -54 -5 2 -8 21 -8 43 0 32 4 39 26 44 35 9 74 36 74 51
0 17 -44 35 -85 35 -34 0 -35 1 -35 40 0 22 2 40 5 40 2 0 33 -15 67 -34z
m117 -247 c27 -16 39 -18 57 -11 12 6 25 8 28 4 11 -10 -6 -155 -21 -184 -26
-54 -120 -76 -183 -43 -36 19 -70 74 -70 114 0 72 62 134 140 140 8 0 30 -8
49 -20z"/>
<path d="M7536 4469 c-38 -30 -36 -73 6 -95 41 -21 106 -13 130 16 21 26 23
44 5 37 -8 -3 -20 -1 -27 3 -12 7 -11 11 0 25 12 14 12 18 -1 26 -25 16 -85
10 -113 -12z"/>
<path d="M7850 6393 c-93 -105 -163 -373 -98 -373 10 0 21 8 24 18 4 9 28 62
54 117 68 141 81 176 83 226 3 58 -19 62 -63 12z"/>
<path d="M7938 6127 c-33 -26 -64 -95 -50 -109 28 -28 91 47 92 110 0 28 -8
28 -42 -1z"/>
<path d="M4265 5801 c-7 -79 -8 -81 -34 -81 -47 0 -101 -72 -101 -135 0 -58
23 -102 59 -110 28 -6 44 -25 21 -25 -15 0 -12 -27 4 -33 15 -6 84 43 99 68 4
8 0 32 -9 55 -9 22 -14 50 -11 62 4 15 -3 29 -25 49 -16 16 -34 29 -39 29 -5
0 -9 5 -9 10 0 14 32 12 51 -3 8 -7 30 -34 49 -61 29 -43 34 -58 36 -120 2
-71 18 -99 30 -52 12 50 -27 172 -73 221 -14 16 -18 36 -18 102 0 49 -5 87
-12 94 -9 9 -13 -8 -18 -70z m-31 -157 c17 -7 21 -29 7 -38 -15 -10 -61 12
-61 29 0 15 26 20 54 9z m21 -76 c12 -11 -11 -28 -39 -28 -20 0 -56 27 -56 42
0 10 81 -1 95 -14z m-15 -55 c13 -4 13 -6 -2 -14 -19 -10 -68 4 -68 21 0 10
28 7 70 -7z"/>
<path d="M4940 5656 c0 -9 15 -39 33 -68 19 -29 42 -79 52 -111 19 -61 56
-107 86 -107 25 0 24 4 -11 74 -17 32 -30 69 -30 82 0 28 -55 100 -97 126 -28
17 -33 18 -33 4z"/>
<path d="M4230 5328 c1 -24 5 -88 10 -143 5 -55 14 -154 20 -220 13 -148 26
-217 51 -259 27 -46 60 -288 69 -516 6 -133 16 -240 33 -335 14 -77 37 -207
52 -290 14 -82 37 -195 51 -250 39 -162 109 -391 112 -369 3 20 -112 945 -212
1704 -30 228 -60 467 -66 530 -16 161 -16 159 -55 176 -56 23 -65 19 -65 -28z"/>
<path d="M4400 5271 c0 -44 36 -335 65 -526 13 -88 47 -335 75 -550 28 -214
53 -397 55 -405 2 -8 23 -177 45 -375 23 -198 50 -423 61 -500 10 -77 19 -141
19 -142 0 -2 4 -3 9 -3 20 0 80 108 99 180 19 70 20 89 11 285 -5 116 -16 256
-25 313 -9 57 -13 115 -9 130 4 15 7 82 6 149 -2 93 -7 137 -22 180 -11 32
-27 119 -35 193 -8 74 -23 164 -33 200 -27 95 -38 482 -16 593 21 111 21 112
-22 123 -30 7 -43 18 -61 52 -14 25 -31 42 -42 42 -18 0 -100 40 -153 74 l-27
18 0 -31z"/>
<path d="M5205 4719 c-41 -19 -75 -29 -107 -29 -49 0 -57 -7 -36 -28 15 -15
90 -16 137 -2 19 5 37 7 40 4 10 -9 -58 -64 -79 -64 -23 0 -27 -25 -6 -33 45
-17 119 40 114 89 -1 17 5 43 15 57 9 15 17 29 17 32 0 12 -39 2 -95 -26z"/>
<path d="M7232 4124 c-90 -45 -136 -124 -201 -345 -217 -746 -238 -811 -318
-959 -168 -312 -394 -540 -679 -685 -145 -74 -231 -104 -405 -143 -118 -27
-124 -29 -122 -53 1 -13 -5 -43 -13 -67 -16 -42 -15 -43 15 -90 17 -27 36 -63
42 -80 9 -28 16 -32 46 -32 52 0 223 37 332 72 104 33 295 119 376 170 155 98
345 259 461 390 94 107 222 334 325 579 65 154 218 608 261 774 45 172 72 261
102 330 35 79 35 80 15 101 -30 32 -102 64 -146 64 -22 0 -61 -11 -91 -26z
m-22 -109 c0 -4 -7 -20 -16 -36 -27 -53 8 -83 44 -38 23 28 52 16 52 -22 0
-24 4 -29 24 -29 28 0 36 15 29 54 -5 23 -3 27 13 24 10 -2 20 -12 22 -22 6
-29 -7 -101 -22 -121 -12 -17 -17 -16 -97 9 -47 14 -90 26 -96 26 -6 0 -16 6
-22 14 -14 17 3 101 27 129 14 16 42 24 42 12z m-56 -214 c3 -4 -1 -17 -9 -27
-30 -40 -22 -47 90 -73 74 -18 87 -31 61 -66 -14 -19 -15 -19 -86 4 -39 12
-78 20 -86 17 -8 -3 -14 -19 -14 -41 0 -24 -5 -35 -15 -35 -32 0 -35 34 -10
123 13 48 26 91 30 97 8 12 32 13 39 1z m106 -290 c0 -33 -11 -51 -31 -51 -11
0 -24 -11 -31 -25 -9 -20 -8 -28 5 -43 24 -27 20 -82 -6 -82 -16 0 -177 161
-177 177 0 13 23 18 135 32 106 13 105 13 105 -8z m-220 -145 c0 -8 -4 -18
-10 -21 -29 -18 20 -53 123 -88 18 -7 21 -24 11 -51 -8 -21 -18 -20 -89 9 -75
31 -83 31 -91 0 -7 -28 -29 -33 -38 -8 -7 16 29 138 47 161 13 17 47 15 47 -2z
m-43 -251 c12 -8 23 -25 25 -38 3 -20 7 -22 57 -19 l55 4 -16 -24 c-13 -20
-40 -39 -73 -51 -5 -2 0 -13 13 -23 21 -18 22 -22 11 -47 -7 -15 -17 -26 -23
-23 -128 56 -170 76 -178 84 -13 13 29 119 55 137 27 19 47 19 74 0z m-160
-240 c-33 -29 -32 -59 1 -63 16 -3 22 2 22 17 0 27 13 33 45 21 20 -8 25 -15
20 -28 -19 -46 -18 -54 6 -50 17 2 25 12 32 38 5 19 11 37 13 39 9 9 34 -23
34 -43 0 -22 -49 -108 -68 -120 -12 -7 -185 81 -191 96 -3 10 30 77 52 106 5
6 21 12 36 12 l26 -1 -28 -24z m-57 -205 c16 -23 29 -30 55 -30 29 0 35 -4 44
-33 7 -19 8 -43 4 -53 -11 -29 -67 -114 -74 -114 -3 0 -23 13 -43 29 -20 16
-59 44 -86 61 -28 18 -50 36 -50 41 0 45 72 129 110 129 10 0 28 -13 40 -30z
m-180 -197 c51 -35 140 -115 140 -127 0 -7 -9 -21 -20 -31 -20 -18 -21 -18
-63 22 -23 22 -59 52 -79 68 -39 28 -47 52 -26 73 16 16 19 15 48 -5z m-114
-183 c29 -27 59 -50 66 -50 7 0 22 12 33 27 25 30 45 24 45 -13 0 -24 -69
-104 -90 -104 -10 0 -113 98 -137 131 -10 12 -9 20 3 37 8 12 18 22 21 22 3 0
30 -22 59 -50z m-305 -180 c10 -6 19 -20 19 -32 0 -12 16 -36 36 -54 36 -34
39 -57 11 -92 -14 -17 -108 -72 -124 -72 -6 0 -21 29 -33 65 -46 139 -84 138
-95 -3 -8 -104 -12 -122 -29 -122 -7 0 -46 37 -86 82 -67 75 -71 83 -54 95 22
16 54 17 54 1 0 -17 51 -68 68 -68 11 0 13 12 7 60 l-7 60 94 45 c100 48 109
50 139 35z m-443 -163 c3 -12 -3 -17 -22 -17 -14 0 -28 -5 -31 -10 -9 -15 14
-40 35 -40 28 0 80 -49 80 -74 0 -29 -24 -50 -74 -66 -32 -10 -40 -10 -53 3
-14 14 -12 17 21 31 44 19 41 28 -24 61 -57 29 -64 38 -56 71 5 17 21 32 49
45 49 22 70 21 75 -4z"/>
<path d="M7114 3459 c-3 -6 0 -15 7 -20 22 -14 29 -11 29 11 0 21 -24 27 -36
9z"/>
<path d="M6935 3040 c-8 -14 3 -30 21 -30 8 0 14 9 14 20 0 21 -24 28 -35 10z"/>
<path d="M6710 2615 c-9 -11 -10 -19 -2 -27 14 -14 32 -1 32 23 0 23 -13 25
-30 4z"/>
<path d="M6789 2564 c-10 -12 -9 -18 5 -32 15 -15 18 -15 26 -2 5 8 10 20 10
26 0 19 -28 24 -41 8z"/>
<path d="M6107 2064 c-3 -3 -3 -12 0 -20 4 -11 9 -12 19 -3 8 6 14 15 14 20 0
10 -24 12 -33 3z"/>
<path d="M6147 2003 c-12 -11 -8 -49 8 -69 15 -19 15 -19 35 5 24 28 25 35 4
55 -16 17 -36 21 -47 9z"/>
<path d="M5330 3945 c-35 -36 -50 -37 -50 -4 0 14 -5 19 -17 17 -15 -3 -18
-13 -16 -59 2 -31 11 -83 21 -115 15 -48 22 -58 38 -56 28 5 28 6 10 58 -22
66 -20 81 12 98 28 14 52 53 52 81 0 23 -13 18 -50 -20z"/>
<path d="M7516 3912 c-20 -44 -18 -75 4 -79 28 -5 42 14 43 63 3 64 -22 72
-47 16z"/>
<path d="M3319 3930 c-9 -5 -28 -27 -44 -49 -18 -27 -46 -49 -81 -66 -62 -29
-69 -38 -54 -65 9 -16 21 -20 62 -20 39 0 72 -9 130 -36 73 -35 79 -36 101
-21 25 16 37 54 37 114 0 94 -89 179 -151 143z"/>
<path d="M4886 3903 c-10 -25 -7 -138 5 -172 10 -27 15 -31 47 -31 38 1 72 19
72 39 0 13 -11 14 -43 2 -21 -8 -26 -6 -36 15 -13 28 -14 57 -4 68 4 4 8 17 8
29 0 14 7 23 20 25 50 7 65 13 65 25 0 19 -127 19 -134 0z"/>
<path d="M3106 3620 c-41 -13 -93 -51 -105 -78 -33 -70 13 -316 99 -532 81
-204 240 -489 370 -661 128 -169 375 -395 544 -497 112 -69 316 -134 503 -163
94 -14 105 -10 124 49 6 20 23 53 38 72 25 32 27 41 23 107 l-4 73 -37 5
c-112 18 -163 30 -254 62 -111 38 -166 63 -212 97 -16 12 -52 35 -78 50 -146
84 -319 266 -478 504 -147 219 -230 408 -314 717 -52 187 -65 206 -143 204
-26 0 -60 -5 -76 -9z m164 -245 c19 -23 38 -128 28 -155 -12 -32 -37 -49 -75
-50 -27 0 -37 7 -64 46 -31 45 -37 48 -81 29 -13 -5 -20 0 -28 20 -6 16 -9 32
-7 38 2 7 180 81 208 86 4 0 12 -6 19 -14z m76 -247 c8 -25 3 -28 -71 -58 -33
-12 -66 -27 -72 -33 -19 -14 -16 -44 5 -56 12 -7 14 -13 6 -21 -17 -17 -39 -3
-63 41 -33 58 -26 79 34 99 28 9 68 26 90 37 44 23 61 21 71 -9z m104 -197 c0
-10 -148 -211 -155 -211 -3 0 -12 11 -21 25 -14 22 -14 26 2 54 25 43 9 76
-37 76 -27 0 -35 4 -37 22 -3 19 3 22 55 28 32 4 63 8 68 10 23 8 125 4 125
-4z m94 -176 c27 -25 42 -66 32 -90 -9 -24 -24 -17 -31 15 -9 41 -36 54 -80
40 -62 -20 -86 -88 -45 -125 25 -22 26 -35 3 -35 -23 1 -57 28 -72 58 -27 52
16 133 82 156 48 16 79 11 111 -19z m110 -171 c13 -35 9 -39 -150 -156 -16
-12 -41 0 -47 23 -4 15 14 33 81 84 92 69 106 75 116 49z m118 -151 c27 -40
30 -51 25 -96 -3 -41 -10 -56 -36 -79 -46 -41 -73 -44 -125 -14 -43 25 -86 73
-86 94 0 6 26 31 58 55 31 25 68 56 81 70 29 32 44 26 83 -30z m168 -210 c0
-30 -65 -213 -76 -213 -6 0 -19 9 -29 20 -15 16 -16 25 -7 44 9 20 7 29 -10
51 -19 25 -25 27 -70 21 -43 -6 -49 -5 -46 10 2 11 21 22 53 30 28 7 77 24
110 38 62 26 75 25 75 -1z m130 -92 c5 -11 10 -32 10 -48 0 -52 11 -58 75 -43
68 16 86 6 66 -37 -32 -71 -87 -153 -104 -153 -28 0 -32 30 -9 71 12 21 22 41
22 45 0 3 -20 3 -44 0 -42 -7 -44 -6 -55 24 -12 37 -26 32 -46 -16 -15 -36
-35 -43 -54 -20 -9 10 -4 22 20 52 17 21 40 57 51 79 36 70 50 79 68 46z"/>
<path d="M3192 3292 c-22 -14 -3 -43 27 -40 36 4 44 48 9 48 -13 0 -29 -4 -36
-8z"/>
<path d="M3322 2879 c2 -6 8 -10 13 -10 5 0 11 4 13 10 2 6 -4 11 -13 11 -9 0
-15 -5 -13 -11z"/>
<path d="M3673 2364 c-58 -50 -67 -78 -28 -88 36 -9 79 17 99 59 38 79 3 94
-71 29z"/>
<path d="M3853 2173 c-18 -7 -16 -23 2 -23 8 0 15 7 15 15 0 8 -1 15 -2 14 -2
0 -9 -3 -15 -6z"/>
<path d="M5262 3128 c-16 -16 -15 -53 1 -66 6 -5 25 -12 42 -14 35 -4 44 17
25 63 -13 31 -46 39 -68 17z"/>
<path d="M5261 2979 c-21 -60 -17 -64 67 -83 122 -28 167 0 118 74 -27 42 -55
51 -76 25 -22 -26 -50 -28 -75 -5 l-23 21 -11 -32z m153 -25 c20 -8 21 -34 2
-34 -17 0 -38 24 -29 33 8 8 8 8 27 1z"/>
<path d="M4887 2842 c-9 -21 -37 -62 -62 -91 -34 -40 -43 -57 -35 -65 8 -8 19
-2 39 23 24 29 32 33 57 27 73 -18 95 -18 114 -1 40 37 16 105 -46 131 -46 19
-48 19 -67 -24z m107 -47 c6 -16 -18 -45 -38 -45 -18 0 -36 21 -36 42 0 14 8
18 34 18 21 0 36 -6 40 -15z"/>
<path d="M4808 1999 c-10 -5 -20 -25 -24 -45 -5 -30 -2 -40 22 -65 38 -40 48
-25 39 55 -7 69 -9 72 -37 55z"/>
<path d="M4926 1937 c-5 -21 7 -93 17 -104 3 -3 41 -9 84 -14 88 -11 208 -3
221 14 13 17 23 105 13 111 -4 3 -35 -15 -67 -39 -75 -56 -106 -58 -166 -10
-24 19 -55 41 -69 49 -25 15 -27 14 -33 -7z"/>
<path d="M5347 1943 c-4 -3 -7 -28 -7 -55 0 -52 10 -59 48 -32 38 26 25 94
-18 94 -9 0 -20 -3 -23 -7z"/>
<path d="M4761 1739 c-25 -41 -28 -124 -6 -157 24 -34 92 -69 180 -93 106 -29
287 -23 378 11 137 52 191 152 124 232 l-22 27 -65 -17 c-48 -12 -107 -16
-230 -16 -157 0 -194 5 -317 40 -18 5 -26 -1 -42 -27z"/>
<path d="M7920 8859 c-47 -28 -89 -54 -93 -59 -8 -7 103 -100 121 -100 9 0 68
198 60 205 -2 2 -42 -18 -88 -46z"/>
<path d="M578 6957 c-23 -21 -56 -93 -46 -102 6 -6 227 -95 236 -95 11 0 32
69 32 107 0 89 -156 151 -222 90z"/>
<path d="M1628 2188 l-107 -40 56 -64 c31 -35 60 -61 64 -57 8 8 101 204 96
202 -1 0 -50 -18 -109 -41z"/>
<path d="M8171 1733 c-11 -10 -23 -31 -27 -48 -5 -26 3 -39 61 -102 36 -39 80
-81 99 -92 62 -39 110 -21 108 40 -1 51 -115 186 -175 208 -37 14 -41 14 -66
-6z"/>
<path d="M7568 1585 c-30 -17 -58 -62 -58 -94 0 -32 41 -71 81 -77 20 -4 61
-1 92 6 54 11 57 13 57 41 0 91 -101 164 -172 124z"/>
<path d="M7753 1288 c-49 -11 -58 -29 -48 -94 9 -64 67 -124 119 -124 98 0
163 90 122 168 -29 57 -92 73 -193 50z"/>
<path d="M4535 818 c-10 -31 -36 -239 -30 -248 3 -5 30 -10 58 -10 43 0 59 5
87 28 31 27 34 34 38 95 3 51 0 73 -13 93 -28 43 -129 73 -140 42z"/>
</g>
</svg>
