<?xml version="1.0" standalone="no"?>
<!DOCTYPE svg PUBLIC "-//W3C//DTD SVG 20010904//EN"
 "http://www.w3.org/TR/2001/REC-SVG-20010904/DTD/svg10.dtd">
<svg version="1.0" xmlns="http://www.w3.org/2000/svg"
 width="866.000000pt" height="563.000000pt" viewBox="0 0 866.000000 563.000000"
 preserveAspectRatio="xMidYMid meet">

<g transform="translate(0.000000,563.000000) scale(0.100000,-0.100000)"
fill="#000000" stroke="none">
<path d="M660 4597 l0 -43 75 -12 c92 -14 129 -32 152 -75 16 -29 19 -83 24
-592 6 -524 8 -566 28 -650 53 -228 184 -386 381 -463 108 -42 141 -47 310
-46 151 0 172 2 245 27 191 63 315 175 400 360 76 165 85 246 95 807 5 286 12
489 19 509 29 93 140 141 272 120 120 -19 154 -52 165 -156 12 -113 -66 -1156
-101 -1357 -21 -119 -57 -155 -177 -180 l-63 -13 -3 -41 -3 -42 337 2 338 3
-1 33 c-1 17 -2 37 -2 42 -1 6 -16 10 -33 10 -54 0 -143 25 -176 49 -51 36
-55 71 -49 386 10 431 43 1033 57 1018 5 -4 25 -48 45 -98 40 -97 311 -744
482 -1150 58 -137 110 -256 116 -263 6 -7 22 -12 36 -10 23 3 35 26 127 233
56 127 120 271 143 320 116 258 210 468 326 733 71 160 132 292 136 292 10 0
17 -1276 8 -1354 -14 -111 -43 -138 -170 -153 l-64 -8 0 -40 0 -40 380 0 380
0 0 40 0 40 -70 8 c-126 14 -170 51 -185 157 -10 72 -27 598 -36 1100 -5 302
-4 327 13 360 25 47 64 67 163 82 l85 13 3 43 3 42 -249 0 -249 0 -101 -217
c-55 -120 -200 -434 -322 -698 -122 -264 -226 -491 -231 -504 -6 -14 -13 -21
-19 -15 -4 5 -42 83 -83 174 -41 91 -130 284 -196 430 -67 146 -179 392 -249
547 l-127 282 -547 1 -548 0 0 -44 0 -44 56 -7 c130 -16 193 -53 215 -126 6
-19 15 -170 22 -337 19 -511 -8 -769 -100 -950 -92 -183 -260 -274 -481 -259
-232 15 -385 143 -460 387 -37 122 -43 230 -40 715 3 499 3 496 60 538 16 12
56 24 107 30 l81 11 0 43 0 43 -375 0 -375 0 0 -43z"/>
<path d="M5305 4026 c-157 -50 -390 -195 -422 -260 -15 -32 -14 -36 3 -72 35
-72 126 -107 172 -66 11 9 32 53 46 96 46 140 104 196 203 196 137 -1 223
-107 231 -288 l4 -92 -103 -49 c-57 -27 -165 -71 -239 -96 -74 -26 -155 -58
-180 -70 -65 -33 -125 -102 -144 -166 -19 -64 -20 -97 -2 -170 36 -157 173
-269 324 -269 70 0 115 20 244 106 53 35 100 64 105 64 5 0 15 -16 22 -35 25
-71 105 -134 171 -135 25 0 260 134 260 149 0 4 -5 22 -11 40 -9 24 -15 30
-28 25 -9 -4 -35 -11 -58 -17 -34 -8 -46 -7 -67 7 -61 39 -60 35 -67 456 -4
265 -10 397 -18 425 -33 106 -113 190 -214 224 -78 27 -144 26 -232 -3z m213
-1050 c-47 -39 -148 -79 -202 -80 -175 -2 -272 226 -148 350 33 33 134 87 332
175 l35 16 3 -221 c3 -219 2 -221 -20 -240z"/>
<path d="M6353 4035 c-127 -35 -224 -111 -271 -213 -22 -48 -27 -71 -26 -142
0 -170 72 -256 320 -383 82 -42 166 -93 188 -114 49 -47 76 -105 76 -166 0
-62 -22 -109 -72 -152 -95 -81 -238 -58 -349 56 -44 45 -117 171 -131 227 -6
22 -30 28 -62 16 -12 -5 -16 -21 -16 -73 0 -73 25 -243 40 -270 11 -22 104
-65 185 -86 76 -20 220 -19 299 1 130 34 240 115 292 215 22 43 28 71 32 140
6 125 -12 175 -98 261 -59 59 -85 75 -226 143 -87 43 -176 91 -197 107 -65 52
-96 136 -77 210 40 148 202 194 333 94 42 -32 95 -109 123 -178 16 -39 23 -48
44 -48 54 0 56 9 37 125 -10 58 -25 127 -33 154 -14 47 -16 49 -71 66 -80 24
-271 30 -340 10z"/>
<path d="M7260 4034 c-124 -33 -220 -109 -268 -211 -23 -49 -27 -72 -27 -143
0 -71 4 -94 27 -142 47 -100 123 -159 350 -272 176 -87 244 -201 193 -324 -45
-107 -158 -149 -286 -107 -74 25 -159 112 -210 218 -21 44 -39 87 -39 93 0 20
-19 26 -56 19 l-34 -6 5 -67 c10 -107 25 -214 36 -250 21 -64 181 -122 343
-122 152 0 267 42 363 132 73 69 105 139 111 238 7 119 -15 178 -98 261 -59
60 -84 75 -242 153 -142 69 -183 94 -212 128 -72 83 -73 185 -3 265 53 60 122
77 211 51 62 -18 155 -116 191 -200 25 -58 33 -68 55 -68 50 0 54 10 41 97
-21 129 -42 207 -62 225 -49 43 -277 62 -389 32z"/>
<path d="M4050 2520 c-35 -10 -102 -26 -147 -36 -74 -15 -83 -20 -83 -39 0
-24 17 -35 55 -35 38 0 73 -20 85 -49 7 -18 10 -222 8 -669 l-3 -644 -27 -23
c-15 -13 -48 -27 -73 -30 -41 -7 -45 -10 -45 -36 l0 -29 238 2 237 3 0 24 c0
21 -7 27 -49 37 -95 24 -91 8 -94 383 l-3 328 36 32 c111 97 276 108 358 23
58 -60 62 -83 65 -382 4 -293 -1 -339 -41 -364 -12 -8 -41 -17 -64 -21 -39 -6
-43 -9 -43 -36 l0 -29 238 2 237 3 3 26 c3 25 0 27 -46 34 -40 5 -73 22 -94
48 -1 1 -4 146 -8 322 -7 354 -12 382 -74 472 -23 34 -50 57 -91 78 -52 27
-68 30 -144 30 -102 0 -160 -22 -259 -97 -35 -27 -65 -48 -68 -48 -2 0 -4 167
-4 370 0 422 11 382 -100 350z"/>
<path d="M1359 2429 c-27 -10 -11 29 -346 -824 -224 -570 -226 -573 -346 -600
-48 -11 -52 -14 -55 -43 l-3 -32 246 0 246 0 -3 32 c-3 31 -6 33 -53 40 -129
18 -132 44 -35 321 l52 147 242 0 242 0 23 -62 c60 -163 111 -321 111 -342 0
-32 -21 -47 -83 -61 -48 -11 -52 -14 -55 -43 l-3 -32 498 2 498 3 3 27 c3 23
-1 27 -35 33 -44 7 -65 21 -81 52 -9 15 -12 116 -12 336 l0 315 31 27 c44 37
136 81 185 89 57 10 122 -9 162 -47 58 -55 63 -96 60 -427 l-3 -292 -27 -23
c-16 -14 -47 -26 -78 -30 -48 -7 -51 -9 -48 -34 l3 -26 240 0 240 0 3 27 c3
25 0 27 -43 33 -61 10 -85 31 -96 85 -4 25 -8 176 -9 336 l0 292 63 39 c86 55
122 68 192 67 70 -1 114 -20 145 -65 45 -61 50 -105 50 -393 0 -331 0 -333
-98 -356 -58 -14 -63 -17 -60 -40 l3 -25 238 -3 237 -2 0 29 c0 26 -4 30 -41
36 -22 4 -52 17 -67 30 l-27 23 -6 329 c-6 359 -11 391 -68 469 -17 22 -54 53
-83 70 -46 25 -63 29 -133 29 -72 0 -86 -3 -143 -34 -35 -19 -98 -59 -140 -88
-67 -46 -78 -51 -87 -36 -34 56 -77 101 -120 128 -43 27 -57 30 -129 30 -71 0
-88 -4 -141 -32 -33 -17 -91 -55 -130 -83 l-70 -50 -3 85 c-2 48 -7 85 -13 85
-5 0 -26 -7 -47 -16 -20 -8 -86 -28 -147 -43 -102 -26 -110 -30 -113 -54 -3
-22 1 -26 38 -32 23 -4 53 -17 68 -30 l27 -23 3 -321 c3 -341 -2 -392 -41
-412 -72 -39 -188 -26 -248 28 -44 40 -61 79 -187 428 -113 312 -246 682 -303
842 -24 68 -48 123 -54 122 -5 0 -22 -5 -36 -10z m51 -560 c51 -149 93 -277
94 -285 1 -13 -29 -15 -199 -15 -159 0 -200 2 -200 13 0 19 199 558 206 558 3
0 47 -122 99 -271z"/>
<path d="M7407 2163 l-77 -78 0 -82 0 -83 -53 0 c-45 0 -57 -4 -80 -28 -42
-44 -36 -51 51 -54 l77 -3 6 -375 c6 -407 8 -426 62 -487 40 -45 82 -63 150
-63 44 0 72 9 158 51 57 28 105 52 107 54 2 2 -4 15 -13 28 -16 25 -17 25 -58
11 -56 -20 -118 -22 -150 -5 -15 8 -37 35 -49 60 -23 45 -23 53 -23 386 l0
340 127 3 c126 3 128 3 134 27 13 51 5 54 -133 57 l-128 3 -5 154 c-3 95 -9
156 -16 158 -5 2 -45 -32 -87 -74z"/>
<path d="M5270 1943 c-14 -2 -57 -20 -97 -39 -136 -65 -247 -207 -288 -369
-19 -76 -19 -214 0 -290 35 -133 128 -250 242 -303 52 -24 70 -27 163 -27 102
0 109 1 181 37 49 24 97 58 137 99 65 64 70 74 49 103 -13 17 -17 16 -66 -22
-164 -124 -374 -84 -478 89 -35 59 -60 145 -65 224 l-3 50 65 2 c159 6 524 35
545 43 67 26 30 201 -64 302 -58 64 -139 101 -226 104 -38 1 -81 0 -95 -3z
m134 -110 c45 -32 81 -96 90 -160 5 -35 2 -47 -14 -63 -19 -19 -33 -20 -221
-20 l-201 0 6 32 c10 52 55 141 89 177 73 76 172 90 251 34z"/>
<path d="M6010 1934 c-19 -9 -84 -28 -145 -43 -95 -24 -110 -31 -113 -49 -2
-12 3 -24 10 -26 7 -2 32 -9 56 -15 72 -20 73 -28 70 -417 -3 -383 1 -365 -99
-387 -48 -11 -54 -15 -54 -37 l0 -25 258 -3 257 -2 0 29 c0 28 -2 30 -54 36
-72 9 -111 34 -120 75 -3 18 -6 142 -6 277 0 241 0 244 25 294 14 27 43 67 65
89 60 60 115 63 182 9 48 -39 120 2 134 77 9 46 -8 79 -55 111 -85 57 -198 1
-304 -150 l-42 -60 -3 116 c-3 128 -3 127 -62 101z"/>
<path d="M6774 1936 c-146 -35 -234 -143 -234 -286 0 -120 65 -195 252 -290
57 -29 118 -63 136 -77 70 -52 93 -158 49 -224 -98 -146 -295 -82 -389 127
-34 76 -42 83 -71 61 -16 -11 -17 -21 -7 -107 17 -151 22 -164 78 -188 80 -35
136 -44 234 -40 150 7 254 61 314 165 31 52 43 154 25 219 -22 82 -109 157
-257 223 -48 22 -106 53 -131 70 -172 122 -35 362 154 270 52 -25 94 -74 125
-146 23 -52 38 -62 67 -44 13 8 13 22 -2 104 -25 144 -24 143 -106 161 -82 19
-165 19 -237 2z"/>
</g>
</svg>
